/* XPM */
static char *xpm_land[] = {
/* width height num_colors chars_per_pixel */
"32 32 2 2",
/* colors */
".. c #000000",
"## c #ffffff",
/* pixels */
"................................................................",
"................................................................",
"..................##............................................",
"..................##............................................",
"..................##............................................",
"................................................................",
"..................##............................................",
"..................##............................................",
"..................##............................................",
"................................................................",
"..................##............................................",
"..................##............................................",
"..................##............................................",
"................................................................",
"..................##..........................##................",
"..................##..........................##................",
"..................##..........................##................",
"..................##..........................##................",
"..........................##############........................",
"..............................................##................",
"..............................................##................",
"..............................................##................",
"................................................................",
"..............................................##................",
"..............................................##................",
"..............................................##................",
"................................................................",
"..............................................##................",
"..............................................##................",
"..............................................##................",
"................................................................"
"................................................................"
};
