/* XPM */
static char *_d6483ffcd664374c66645a2c9a0bfbf6lmboDBrvoojTJSe[] = {
/* columns rows colors chars-per-pixel */
"50 50 179 2 ",
"   c #010002",
".  c #0E0C11",
"X  c #161418",
"o  c #1C181E",
"O  c #1F1D23",
"+  c #252326",
"@  c #272528",
"#  c #2A252A",
"$  c #2D292D",
"%  c #2F2D31",
"&  c #322E33",
"*  c #333136",
"=  c #373238",
"-  c #3A353B",
";  c #3C3A3E",
":  c #413C42",
">  c #454146",
",  c #464348",
"<  c #484749",
"1  c #4D4A4D",
"2  c #4E4C51",
"3  c #514E54",
"4  c #545357",
"5  c #555358",
"6  c #59555B",
"7  c #5C5A5E",
"8  c #5D5B61",
"9  c #615D63",
"0  c #636165",
"q  c #66656B",
"w  c #69666C",
"e  c #67686D",
"r  c #6D696F",
"t  c #6E6B71",
"y  c #716D73",
"u  c #746E78",
"i  c #6B7075",
"p  c #747175",
"a  c #767379",
"s  c #79757B",
"d  c #7C797E",
"f  c #7D7680",
"g  c #7E7B81",
"h  c #827E84",
"j  c #857F89",
"k  c #7D8289",
"l  c #7EB3CE",
"z  c #858286",
"x  c #868389",
"c  c #8A858C",
"v  c #8B888D",
"b  c #828C96",
"n  c #8E8B91",
"m  c #928D94",
"M  c #949195",
"N  c #989397",
"B  c #969399",
"V  c #99959C",
"C  c #97999D",
"Z  c #9C999E",
"A  c #8797A1",
"S  c #939AA0",
"D  c #9D9BA1",
"F  c #A29DA4",
"G  c #A59FA9",
"H  c #9FA7AE",
"J  c #98ACBB",
"K  c #A4A1A5",
"L  c #A5A3A9",
"P  c #AAA5AC",
"I  c #ABA9AE",
"U  c #ACA7B0",
"Y  c #ADACB1",
"T  c #A3AEB8",
"R  c #B2ADB4",
"E  c #B5AFB9",
"W  c #AFB1B5",
"Q  c #AEB4BC",
"!  c #B3B1B6",
"~  c #B8B3B7",
"^  c #B6B3BA",
"/  c #B9B5BC",
"(  c #B5B8BE",
")  c #BCB9BF",
"_  c #C0BBBF",
"`  c #81B1CB",
"'  c #92B3C7",
"]  c #87B9D1",
"[  c #8ABAD4",
"{  c #93BBD4",
"}  c #99BFD7",
"|  c #AFBBC6",
" . c #A9BCC9",
".. c #B5BAC3",
"X. c #BEBCC2",
"o. c #C1BDC5",
"O. c #C5BFC9",
"+. c #96C0D5",
"@. c #95C0D9",
"#. c #9DC3DA",
"$. c #B8C0C7",
"%. c #B9C1CB",
"&. c #ADC5D5",
"*. c #A5C6DC",
"=. c #ACCADD",
"-. c #B2C5D3",
";. c #BCC7D4",
":. c #B5CDDE",
">. c #BDCFDE",
",. c #BBD1DF",
"<. c #9BC8E1",
"1. c #ACCCE1",
"2. c #B4CEE2",
"3. c #B9CFE1",
"4. c #ABD1E9",
"5. c #B5D1E4",
"6. c #BDD3E4",
"7. c #B7D2E8",
"8. c #BDD6E9",
"9. c #BAD8EE",
"0. c #C3C1C6",
"q. c #C5C3CA",
"w. c #C9C5CC",
"e. c #CBCACE",
"r. c #CDC7D1",
"t. c #C4CCD4",
"y. c #CDCBD2",
"u. c #C3CED8",
"i. c #CFCDD8",
"p. c #D2CED5",
"a. c #C4D2DD",
"s. c #C8D4DF",
"d. c #D4D1D6",
"f. c #D6D3D9",
"g. c #D9D5DC",
"h. c #DCD9DE",
"j. c #C2D6E5",
"k. c #CAD7E4",
"l. c #C5D9E6",
"z. c #CCDBE6",
"x. c #C1D7E9",
"c. c #C4D7E8",
"v. c #C2D8EA",
"b. c #C4D8E8",
"n. c #C6D9E9",
"m. c #C9DAEA",
"M. c #CADCEA",
"N. c #CEDDE9",
"B. c #CCDCEA",
"V. c #CADDEE",
"C. c #CEDEEE",
"Z. c #DAD7E0",
"A. c #D1DCE6",
"S. c #D1DDE6",
"D. c #D2DFE7",
"F. c #DDDAE2",
"G. c #D1DEE9",
"H. c #D2DFE9",
"J. c #CCDFF0",
"K. c #E2DDE4",
"L. c #E2DFE8",
"P. c #D3E0EA",
"I. c #D4E1EB",
"U. c #D6E1EA",
"Y. c #D5E1EC",
"T. c #DCE4ED",
"R. c #D4E2F1",
"E. c #E4E1E6",
"W. c #E6E2EA",
"Q. c #E9E5EC",
"!. c #EDE9EF",
"~. c #EBE7F1",
"^. c #EEEAF1",
"/. c #F2EDF4",
"(. c #F4EEF8",
"). c #F4F0F6",
"_. c #F7F2F9",
"`. c #FAF5FC",
"'. c #FDFAFF",
/* pixels */
"z.k.j.a.a.j.j.j.j.j.8.6.6.5.j.V.C.I.Y.Y.I.H.H.H.k.6.=.+.] ] <.9.m.m.k.k.l.l.l.l.l.l.l.b.b.l.l.l.M.M.",
"A.z.k.j.j.j.j.j.j.j.8.6.6.6.x.V.C.I.I.I.H.H.A.A.z.k.j.5.@.l [ 4.v.m.m.l.l.j.j.j.j.l.b.b.j.j.j.b.M.N.",
"A.z.z.k.l.l.l.l.l.x.x.6.5.6.b.V.C.H.P.I.H.A.A.A.N.H.H.J.2.[ l <.9.b.b.j.j.6.6.5.6.6.j.j.j.j.j.j.m.N.",
"N.z.k.k.k.l.l.l.b.b.x.6.6.6.6.j.x.m.N.H.A.A.A.H.H.I.I.Y.b.#.` @.5.j.j.j.j.x.6.6.5.6.6.6.j.6.6.6.b.C.",
"k.k.j.j.l.j.l.l.b.b.x.j.6.6.6.5.:.j.k.N.A.A.A.H.I.I.I.I.M.1.{ #.5.x.j.j.j.b.b.j.6.6.6.6.j.j.6.3.j.N.",
"l.j.j.j.j.6.6.j.j.6.6.6.6.x.b.6.:.,.l.N.H.P.I.I.H.I.I.P.N.x.2.5.8.x.x.b.b.b.b.b.c.j.6.6.j.x.j.6.6.m.",
"j.j.6.6.6.6.6.6.6.6.5.5.6.b.V.b.6.6.j.M.H.P.I.I.P.P.H.H.N.m.b.b.b.x.8.8.b.b.b.m.m.b.l.j.j.b.j.6.6.j.",
"j.j.6.6.6.6.6.6.6.6.6.6.6.b.C.V.j.6.j.m.N.H.H.H.H.A.A.A.A.A.A.k.u.j.2.2.7.b.m.m.m.M.M.M.b.b.c.j.6.6.",
"j.j.j.j.6.6.6.6.6.6.6.6.6.j.V.C.m.c.b.m.k.a.Q ( ! ! ^ / / ^ Y L D D y.q.%.8.b.m.N.N.N.N.M.k.k.j.6.,.",
"j.j.j.j.j.j.j.6.6.6.6.6.6.6.b.V.V.m.j.a.Q W / ! / X.0.q.0.0.X.X.Y U Y D L Y ..C.N.N.N.N.N.N.k.j.6.,.",
"j.j.j.j.j.j.j.j.6.6.6.6.5.5.6.b.m.;...( ^ ^ / ^ ) q.w.w.o.o.0.w.q.X.) ! ! Y L q.H.H.H.N.N.N.N.l.j.,.",
"j.j.j.j.j.j.j.j.j.6.6.6.5.5.5.,.| ..^ ^ o.X.o.p.q.r.y.e.q.0.q.w.w.q.y.r.X.) ) P q.H.H.H.A.N.N.z.l.j.",
"j.j.j.j.j.b.b.j.j.j.6.6.5.5.&.T P / w.r.w.p.d.p.f.f.f.p.y.r.r.r.y.d.r.d.d.X.^ ^ L X.H.N.N.N.N.N.k.l.",
"c.j.j.j.j.b.b.b.j.j.j.6.5.&.L ^ w.w.r.h.p.h.F.F.F.F.g.g.g.g.f.p.w.y.0.y.h.y.X.^ R B X.N.N.N.N.N.z.k.",
"c.j.j.j.j.b.j.j.j.j.6.5. .F U i.p.Z.Z.W.W.Q.L.Q.~.Q.E.W.E.W.L.F.q.o.X.X.0.i.y.! D B v ( N.N.N.N.N.z.",
"c.j.j.j.j.6.6.6.6.6.,. .K ^ q.i.g.E.W.L.~./.^.^.^.^.~.~.~.~.Q.E.E.W.W.f.o.e.p.) P B n W N.N.N.N.N.N.",
"c.j.j.j.6.6.6.6.5.,.-.4 D r.F.F.L.E.^./.(./.`./.(._.(.)./.^._.)./.Q.e.! ) g.g.) F D c m t.N.N.N.N.N.",
"m.j.j.j.6.6.6.6.:.-.q O B q.i.L.E.~././._._.^.E & 7 g.'.(.).(./.W.e.w.d.E.E.r.^ Y V n x h t.N.N.N.N.",
"k.m.j.j.5.2.=.1.J | g 8 D r.Q.F.~.(./._././.E.V o , p.'./././.E.d.d.Q./.!.F.w.o.G c g h g t.N.N.N.N.",
"k.k.l.j.6.2.*.' b Y Z n U y.Z.F.W.^.(.`././._.p.q.g._.'.`./.^.K.h.E._./.E.K.w./ G j a s s q.M.N.N.N.",
"k.k.k.k.b.8.2.A k Z n n / f.g.Q.Q.^._.(././.(.'./.'./.).`.)./.Q.W.E.!.!.E.h.O.E U f y s s t.M.N.N.N.",
"k.k.k.k.m.m.>.i g v x n / d.E.E./.`.'.(./._.Q.(._.'.).`./._.W.E.E.Q./.^.K.g.r.o.B y w d I C.M.N.N.N.",
"z.z.k.k.k.m.s.k e g s x 0.h.Q.)._.'._./.Q.`././._./.^./.Q./.W.Q.W.).!.W.K.g.p.R s t y a ! V.V.N.N.N.",
"z.z.z.z.k.z.s.S 8 7 w g / K.Q.`.'.'.^.E.p.K.!.E.E.Q.K.K.Q.K.F.K.E.).W.W.h.w.X.V t 9 a a L b.M.V.N.N.",
"z.z.k.k.k.z.z.H 8 : 3 q K r.g.).`.^.F.e./ o.g.d.g.r.p.p.q.o.q.g.Q.!.!.Q.r.^ P h y u x n y.5.j.m.N.N.",
"z.z.k.k.k.M.M.u.w > & ; w 2 w ^ K.q.^ V n K R I P D V v x m ! K./.^.Q.p.) B c w g x n R j.5.6.j.m.N.",
"z.z.z.k.z.z.M.k.C 7 1 & X   . 5 m y w 9 w h s r 3 9 a x m G ) K.K.E.f.L B g t 6 w n n K 6.6.6.6.l.m.",
"z.z.k.k.z.k.k.l.s.4 a 0 + o X % : & - ; - : > 3 a c V L R Y I ^ ) ) P v j g s j c m B I j.j.6.6.j.b.",
"k.k.k.k.z.k.b.b.b.0 a c 7 + + @ # # $ $ $ - 0 m L R I P R R Y R ! K M m x s c X.q.G B L b.j.6.6.8.b.",
"z.k.k.k.z.m.b.b.6.t.p v w + % # - > - & = : w Z P ^ R I R E ^ ! ! K D v x u F g.g.q.L F b.j.6.6.5.5.",
"m.M.m.k.m.b.x.6.2.6.6 M z - < g M F N z y 1 3 c F E ! E E ^ X.^ K K Z j g c w.K.K.g.q.j.j.j.6.2.=.*.",
"M.m.m.k.l.j.6.5.2.:.v d L I ) 0._ ~ R K M 6 - u Z R ! ^ ^ / ) I P L m h d D g.K.F.f.w.j.j.j.6.2.*.} ",
"k.k.k.l.j.6.6.6.6.5.B g I 0.y.w.w.0./ Y B t * 2 M D R ^ R R R P G G m z d q.K.!.F.f./ j.j.j.x.8.5.1.",
"l.l.j.j.j.j.8.8.8.6.j.x K X.f.F.g.r.O.R F w 3 Z p F K L F L P P I F j j v p./.^.F.r.M j.j.j.b.b.x.8.",
"j.j.j.j.j.j.6.6.6.6.6.t D w.d.g.g.p.q.E n w M 0.0 z D F B V V D B m x h Z K.`./.Q.$.;.l.l.l.l.b.j.j.",
"j.j.j.j.j.j.j.j.j.6.j.9 F 0.p.K.h.p.0.Y x t ^.'.L 0 v B Z D V B B v h a F K.E.F.q.t.k.k.k.M.b.l.j.j.",
"m.k.k.k.j.c.j.j.j.j.x.1 K X.d.E.K.d.X.D s t W.T.! 4 s Z Z M M V m n g g I 0.^ ^ $.k.k.k.N.M.M.m.b.j.",
"N.N.N.N.m.k.k.j.j.j.j.; C e.K.f.p.p./ Z t q.H.N.N.I r d n B V m n m h ^ H.k.k.m.k.k.k.k.z.N.H.N.N.m.",
"H.H.H.H.N.z.k.k.j.j.j.D v e.E.h.h.f.Y h y N.N.z.k.A.h w g M G Z F n z a.l.m.m.m.m.N.N.z.z.N.I.I.H.V.",
"I.I.H.H.N.N.z.k.k.j.j.m.z w.f.F.d.o.L w ^ m.N.z.k.k.Y 0 y n F V V M u.j.l.l.k.m.m.N.C.N.N.N.H.I.C.m.",
"I.P.H.H.A.N.z.k.k.k.j.j.Y / p.h.e.Y z a M.m.m.m.m.m.m.I y d B x D a.j.j.j.l.l.l.l.M.C.I.I.H.H.C.N.j.",
"I.I.I.P.H.A.A.z.z.k.k.k.m.0.Y / K s Y a.b.m.m.m.m.b.b.b.t.( q.t.k.j.j.j.j.j.l.l.l.l.M.P.I.Y.H.N.k.j.",
"I.Y.Y.I.I.H.H.H.N.z.N.N.m.H.! R q.( j.j.j.b.m.l.j.j.j.j.x.x.j.b.l.l.j.j.j.l.l.l.l.j.l.N.I.Y.Y.N.j.6.",
"I.I.I.I.I.I.P.P.H.N.N.N.N.P.W.h.^.N.j.j.j.l.l.j.j.6.3.2.5.6.6.x.l.l.l.l.l.l.l.l.l.j.j.k.C.R.R.C.j.6.",
"I.I.I.I.I.I.P.P.A.A.A.A.H.N.P.I.H.M.m.m.m.k.k.b.c.j.:.:.:.3.5.j.l.m.k.l.l.l.l.l.l.l.j.j.k.N.C.m.6.6.",
"H.P.I.I.P.H.H.A.N.N.N.N.N.N.N.N.N.N.N.N.N.m.m.m.N.c.6.3.3.5.5.j.b.M.m.m.m.m.k.k.m.m.k.k.k.m.m.j.3.:.",
"H.H.H.H.A.A.A.N.N.N.N.N.N.N.N.N.N.N.z.z.z.z.z.N.C.C.m.j.6.6.6.j.b.m.M.M.m.m.M.m.m.m.k.k.k.k.l.j.5.:.",
"H.H.H.H.A.A.A.N.N.N.N.N.N.N.N.N.N.N.N.N.z.z.z.N.N.H.C.m.j.j.6.j.b.V.M.N.N.N.N.N.m.k.k.z.z.z.k.l.6.6.",
"H.H.H.H.H.A.N.N.N.N.N.N.N.N.N.N.N.N.N.N.N.N.N.N.N.H.H.N.b.j.j.j.b.M.M.N.C.C.N.N.N.z.z.N.N.N.z.l.j.6.",
"I.H.H.P.H.A.N.N.N.N.N.N.N.N.N.N.N.N.N.N.N.N.N.N.N.H.I.H.m.j.j.c.b.M.N.N.H.H.H.N.N.N.N.N.N.N.k.l.j.6."
};
