/* XPM */
static char *_e6ecf56a2ad42e8b6a0370e72e48cf3ZlKV6Oqp8DAkpieM[] = {
/* columns rows colors chars-per-pixel */
"50 50 203 2 ",
"   c #0D0606",
".  c #130101",
"X  c #170807",
"o  c #1C0C0B",
"O  c #1D191A",
"+  c #210301",
"@  c #2C0401",
"#  c #230B03",
"$  c #220F0B",
"%  c #360704",
"&  c #3C0A03",
"*  c #2B140F",
"=  c #37130A",
"-  c #231D1D",
";  c #2D1819",
":  c #391916",
">  c #331719",
",  c #331A1B",
"<  c #341F22",
"1  c #262223",
"2  c #2D2223",
"3  c #342222",
"4  c #392423",
"5  c #3A2B2B",
"6  c #342E31",
"7  c #3A2F31",
"8  c #3A373A",
"9  c #4E0700",
"0  c #430B00",
"q  c #4B0B00",
"w  c #530D00",
"e  c #5C0B00",
"r  c #451403",
"t  c #511301",
"y  c #5C1100",
"u  c #5F1B03",
"i  c #441815",
"p  c #631200",
"a  c #552B0F",
"s  c #482219",
"d  c #582B15",
"f  c #662A09",
"g  c #742803",
"h  c #69330E",
"j  c #65380A",
"k  c #793509",
"l  c #653113",
"z  c #733B1A",
"x  c #462C2B",
"c  c #43322C",
"v  c #5E3826",
"b  c #482C30",
"n  c #4B3738",
"m  c #543A34",
"M  c #7C450C",
"N  c #764D0F",
"B  c #784D0F",
"V  c #7D510F",
"C  c #5E4231",
"Z  c #7B4623",
"A  c #694937",
"S  c #764E32",
"D  c #7D5037",
"F  c #4B4748",
"G  c #534644",
"H  c #56524E",
"J  c #564F55",
"K  c #5B5455",
"L  c #56575B",
"P  c #64524C",
"I  c #7C5C4A",
"U  c #655859",
"Y  c #78614D",
"T  c #5D5E62",
"R  c #5A6168",
"E  c #64676A",
"W  c #756B67",
"Q  c #7F726E",
"!  c #676D70",
"~  c #6C7279",
"^  c #78797D",
"/  c #863E08",
"(  c #81450C",
")  c #88480E",
"_  c #934D0E",
"`  c #9A4D0B",
"'  c #95510D",
"]  c #9C550C",
"[  c #814E11",
"{  c #934D1A",
"}  c #885915",
"|  c #965C1E",
" . c #A7560B",
".. c #8C6017",
"X. c #9C6A18",
"o. c #A56616",
"O. c #A46B14",
"+. c #AB6B13",
"@. c #AA6F1C",
"#. c #B66E12",
"$. c #A47115",
"%. c #AB7115",
"&. c #A6741C",
"*. c #B27315",
"=. c #B87413",
"-. c #B97C17",
";. c #B37D19",
":. c #BA7D1E",
">. c #8B4D24",
",. c #84552C",
"<. c #865635",
"1. c #8B6722",
"2. c #986627",
"3. c #A47520",
"4. c #C37915",
"5. c #946A4B",
"6. c #977D6B",
"7. c #807570",
"8. c #BA8417",
"9. c #BB841A",
"0. c #BD8B1A",
"q. c #B6842B",
"w. c #CA8517",
"e. c #C38618",
"r. c #C28A1A",
"t. c #CB8D18",
"y. c #C4951C",
"u. c #CA931D",
"i. c #CB9B1E",
"p. c #D39419",
"a. c #D69B1B",
"s. c #D6A41F",
"d. c #DAA41E",
"f. c #C48F24",
"g. c #CA9422",
"h. c #CC9529",
"j. c #D29B25",
"k. c #CF9D31",
"l. c #DBA622",
"z. c #DEAA22",
"x. c #E0AC22",
"c. c #E6B422",
"v. c #8F847A",
"b. c #777B83",
"n. c #77838C",
"m. c #858485",
"M. c #9B9089",
"N. c #898C91",
"B. c #908E92",
"V. c #8A9198",
"C. c #999595",
"Z. c #93989D",
"A. c #A59B94",
"S. c #8A99A5",
"D. c #939BA2",
"F. c #9FA0A2",
"G. c #98A8B6",
"H. c #A1A3A8",
"J. c #A3ACB3",
"K. c #AEB2B6",
"L. c #A4B2BF",
"P. c #B2B6BC",
"I. c #C5C0BB",
"U. c #88B8D2",
"Y. c #93BCD5",
"T. c #98BFD8",
"R. c #A4B4C3",
"E. c #A9BBC9",
"W. c #B5BDC4",
"Q. c #97C2DC",
"!. c #9EC2DA",
"~. c #B7C3CD",
"^. c #A3C5DC",
"/. c #A7C9DE",
"(. c #ACCADE",
"). c #B7C9D7",
"_. c #B4CCDD",
"`. c #BCD1DF",
"'. c #ACCDE2",
"]. c #B3CEE2",
"[. c #B9CFE1",
"{. c #B6D0E3",
"}. c #BDD3E4",
"|. c #B5D4E9",
" X c #BFD6E9",
".X c #D0D7DE",
"XX c #C3D6E5",
"oX c #CAD6E1",
"OX c #C6D8E6",
"+X c #CCDBE6",
"@X c #C2D7E8",
"#X c #C5D9E9",
"$X c #C9DBE9",
"%X c #CADCEA",
"&X c #CBDCEA",
"*X c #CCDCE9",
"=X c #D1DDE7",
"-X c #D1DEE7",
";X c #D1DFE8",
":X c #D1DEE9",
">X c #D3E0EA",
",X c #D4E1EB",
"<X c #D4E2F1",
/* pixels */
"+X+XXXXXXXXXXXXXXX X}.}.}.@X$X*X>X,X,X,X;X;X;X+X+XOX}./.U.U.Q.|.#X%X$X+X+XXX}.}.XX@X#X#XXXXXXX#X%X*X",
"+X+X+XOXOXOXOX+X@X X}.}.}.@X$X%X*X>X,X,X;X-X-X+X+X;X*X@X^.U.U.'. X#X#X@XXX}.}.}.}.}.XXXXXXXXXXXX%X*X",
"+X+X+X+XOX+X+X#X#X X}.}.}.}.XX@X$X*X;X-X-X-X-X;X>X,X,X*X].Y.U.^.{.XXXX@XXX@X}.}.}.}.}.}.XX}.}.}.#X*X",
"+XXXXX+XXXOX+X#X#X@X}.}.}.}.}.}.XX+X*X;X-X-X;X>X,X,X,X;X}.^.T./.{.XXXX@X@X#X#XXX}.}.}.}.XXXX}.}.XX+X",
"XXXXXXXX}.}.XXXX}.}.}.}.XX@X}.[.`.OX+X*X>X,X,X,X,X,X,X;X#X{.].{. X@X@X@X#X#X#X#XXXXX}.}.XX@XXX}.}.#X",
"XX}.}.}.}.}.}.}.}.}.}.}.@X$X#X}.}.XX$X*X>X,X,X,X,X>X;X*X%X#X@X@X@X@X X@X@X#X#X%X$X#XOX@X@X#XXX}.}.XX",
"XX}.}.}.}.T J T E.}.}.}.@X%X%XXX}.XX$X*X;X>X,X>X;X;X-X+X*X*X$X#XXX{.].{.{.@X#X%X%X%X%X$X#X#XXXXX}.}.",
"XXXXXX}.}.1   X L.}.}.}.@X$X*X#X@X#X$X*X*X*X*X*X*X+X+X+X*X%X$XXX]./.!./.].@X#X%X*X*X*X*X%X$X+XXX}.}.",
"XXXXXXXXXXO   . F E.}.}.}.#X$X%X$X$X%X%X%X+X+X+X+X+X+X+X+X$X$X}.(.!.Y.Y./.{.#X%X*X*X*X*X*X*X+X+X}.`.",
"XXXXXXXXXXO # # o G.}.}.}.}.#X#X$X%X%X%X%X%X+X+X+X+X+X+XXXXXXXXX{./.!.T.^.].#X+X;X;X*X*X+X+X+X+XXX`.",
"XXXXXXXXXX; v 5.= 4 ^ ~.}.{.}.@X#X$X%X%X#X^ 7 7 7 7 7 7 7 6 8 n.#X}.'./.(.}.#X*X;X;X;X;X-X+X+X+X+XXX",
"XXXXXXXX#X; <.k.f q I W.{.].{.}.XX#XOXXX~.K # % & 0 0 0 = # X E .XoX}.}.].}.+X*X;X;X;X-X-X+X+X+X+XOX",
"XXXXXXXX#X; >.l.u.r.2.m G.(.'.{.}.}.~ 8 7 > B 0.0.r.r.r.0.V + ; n P F.}.}.XX+X*X;X;X;X+X+X+X*X*X+X+X",
"XXXXXXXX#X> 9.c.c.c.o.= V.).].{.{.}.J @ 0 y +.c.c.c.c.c.c.*.y q r d 6.I.`.XX+X+X;X;X;X+X+X+X*X*X+X+X",
"XXXXXXXXXX> i.c.c.c. .q x W E.}. XXXK V 9.e.d.c.c.c.c.c.c.d.e.9.9.&.Z m U W.+X*X*X*X*X*X+X+X*X*X+X+X",
"XXXXXX}.XX> o.z.c.c.p./ f S v.~.~.A.D ;.c.c.c.c.c.c.c.c.c.c.c.c.c.z.%.g z 6.P.*X*X*X*X*X*X*X*X*X*X*X",
"XXXXXX}.}.> { l.c.c.c.p.r.| v H.B.m X.l.c.c.c.c.c.c.c.c.c.c.c.c.c.c.d.t.*.z n ! *X*X*X*X*X*X*X*X+X+X",
"$XXXXX}.}.> { l.c.c.c.c.c.i.;.I c = $.c.c.*.9.c.c.c.c.c.c.c.c.c.c.c.c.c.d.-.} 7 #X#X$X%X%X*X*X*X+X+X",
"+XOXXX}.[.> 9.x.c.c.c.c.c.c.c.j + @ $.c.c._ o.c.c.c.c.c.c.c.c.c.c.c.c.c.c.c.0.b }.@X#X%X%X%X*X*X+X+X",
"+X+XOXXX}.> i.c.c.c.c.c.c.c.c.8.j 0 $.c.c.r.u.c.c.c.c.c.c.c.c.c.c.c.c.c.c.c.s.2.Y ^ @X#X$X%X%X*X+X+X",
"+X+X+X$X@X> @.x.c.c.c.c.c.c.c.c.' w %.c.c.c.c.c.c.c.c.c.c.c.c.c.c.c.c.c.c.c.c.u.t 7 }.@X#X%X%X*X+X+X",
"+X+X+X+X$X> >.l.c.c.c.c.c.c.c.c.` e %.c.c.c.c.c.c.c.c.c.c.c.c.c.u._ ) +.c.c.c.d.O.1.^ XX#X$X%X*X*X*X",
"+X+X+X+X*X; Z l.c.c.c.c.c.c.c.c.` e %.c.c.c.c.c.c.c.c.c.c.c.c.c.-.e 9 k c.c.c.c.c.y.4 {.XX#X%X*X*X*X",
"+X+X+X+X+X2 s [ s.c.c.c.c.c.c.c.` e %.c.c.;.r.c.c.c.c.c.c.c.c.c.a.+.o.-.c.c.c.c.c.y.< {.{.XXOX%X*X*X",
"+X+X+X+X+XL * @ u.c.c.c.c.c.c.g./ 9 %.c.c.' _ j.c.c.c.c.c.c.c.c.c.c.c.c.c.c.c.c.c.y.< }.{.}.XX#X*X*X",
"+X+X+X+X+XL.K % y.c.c.c.c.c.c.} r & %.c.c.9.) ( } 9.c.c.c.c.c.c.c.c.c.c.c.c.c.c.x.@.3 XX}.}.}.XX*X*X",
"+X+X+X+X+X+XB.i y.c.c.c.c.p.-.a . @ %.c.c.c.] q @ M a.c.c.c.c.d.p.c.c.c.c.c.c.c.z.O.2 XXXXXX}.}.+X$X",
"+X+X+X+X+X+XH.i u.c.c.c.c.+.f # . @ %.c.c.c.e.( r t ` p.c.c.c.8./ O.w.c.c.c.c.c.c.y.3 #XXXXX}.}.XX#X",
"+X+X+X+X+X#X~.s u.c.c.c.8.} A G 4 % %.c.c.c.c.u.) u g  .=.=.=.) & k 4.c.c.c.c.c.c.y.3 OX#X@X}.}.}.}.",
"+X+X+X$X$X#XXXx i.c.c.k.h A C.K.W : $.c.c.c.c.c.t.#.] g p p p w f 8.c.c.c.c.c.c.z.&.3 +X#X@X}.}.].'.",
"%X%X+X*XOXXX}.G q.h.f.,.= P L.}.^ , N i.c.c.c.c.c.c.t.' ( ( M M O.c.c.c.c.c.c.d.X.d 3 +XXXXX}.]./.^.",
"$X$X+XOXXX}.}.~ 6.5.<.= . K R.{.b.- + X.c.c.c.c.c.c.c.c.c.c.c.c.c.c.c.c.c.c.c.y.0 . 1 OXXX}.}.{./.^.",
"+X+XXXXX}.}.}.S.M.I C $ 8 n.E.].S.T , X.c.c.c.c.c.c.c.c.c.c.c.c.c.c.c.c.c.c.d.} @ o R @XXXXX@X X{.].",
"XXXXXXXXXX}.}.G.H.m # X S./././.{.OXU ..z.c.c.c.c.c.c.c.c.c.c.c.c.c.c.x.g.g.3.@ o 6 XXOX#X#X#X@X@X@X",
"XXXXXXXXXX}.}.R.B.c c H G.^.!.!./.{.m.S X.;.r.d.c.c.c.c.c.c.c.c.c.c.x.:.z z A H K ! OX+X+X+X+X#XXXXX",
"XXXXXXXXXXXXXX`.b.F N.).{.]./.^./.].@XQ i % f @.u.u.u.u.u.g.g.u.u.g.q.Z : 4 U +X+X+X+X+X+X%X#X+XXXXX",
"+X+X+XOX#XXXXXXXV.G.).}.}.{.'.(.(.].}.J.7.5 = d l h h h l l l l f l v A m.N.J.%X+X+X+X+X+X*X*X%X#X#X",
"*X+X+X*X*X+XXXXXR.`.@X@X}.}.{.]._.].}.XX$X~ 2 3 3 3 3 3 3 3 3 3 4 4 2 L $X+X+X%X%X+X+X+X+X*X;X*X*X%X",
";X;X;X*X+X+X+XXXXXXXXXXXXX}.}.{.{.].}.XX$XE.D.D.Z.Z.Z.Z.Z.Z.Z.Z.Z.D.D.J.+X%X%X%X%X+X+X+X+X*X>X,X;X%X",
",X;X;X*X+X+X+X+XXXXXXXXX}.}.}.}.{.{.{.XX$X*X+X+X+X$X%X%X%X$XOXXXXXXXXXOX+X+X+X%X%X*X*X*X*X*X;X>X*X$X",
",X;X;X-X+X+X+X+X+XXXXXXX}.}.}.}.}.}.}.XX$X%X%X%X%X$X$X$X$X#XOXOXXXXXXXXX@XXX+X+X#X%X*X,X,X;X;X*X+XXX",
",X,X,X;X-X-X+X+X+X+XOXXXXXXXXX}.}.}.}.XX$X%X%X$X#X#X#X#X#XXXXXOX@XXXXXXX@XXXXX#X+X+X*X>X,X,X;X*X+XXX",
",X,X,X,X;X;X;X+X+X+X+X+X*X$X+XOXXXXXXXXXXX$X+XOXXXXX}.}.@XXXXX#X@X@XXXXX@X#X+X+XXXXX+X*X>X<X,X*XXX}.",
",X,X,X,X,X,X,X;X*X*X;X*X*X*X*X*X$XXXXXXXOX+XOXXXXX}.[.}.}.}.}.OX+X#X+X+X+X+X+X+XXXXXXX+X*X<X,X*XXX}.",
",X,X,X,X,X,X,X,X,X,X;X;X*X*X*X*X+X*X*X*X$X+X+X@XXX}._._.].}.}.XX#X$X+X+X+X+X+X+X+X+XXXXX%X*X*X$X}.}.",
",X,X,X,X,X;X;X+X+X+X+X+X+X+X+X+X+X+X+X+X*X%X%X*X+XXX}.[.}.}.}.XX#X$X+X+X%X%X+X+X%X+X+X+X+X%X$XXX[._.",
";X;X;X,X;X-X+X+X+X+X+X+X+X+X+X+X+X+X+X+X+X+X+X*X*X%X$XXX}.}.}.@X#X%X%X%X%X%X%X%X%X+X+X+X+X+X#XXX}.{.",
";X;X;X;X-X-X+X+X+X+X+X+X+X+X+X+X+X+X+X+X+X+X+X*X*X*X*X#XXXXX}.@X#X%X*X*X*X*X+X+X%X+X+X+X+X+X+X#X}.}.",
";X;X;X;X-X+X+X+X+X+X+X+X+X+X+X+X+X+X+X+X+X+X*X*X;X,X;X$XOXXXXX@X#X%X*X*X*X*X*X+X+X+X+X+X+X+X+X+XXX}.",
";X;X,X;X-X+X+X+X+X+X*X+X+X+X+X+X+X+X+X+X+X+X*X*X;X,X,X*X$XXXXX#X#X*X*X*X;X;X;X*X+X+X*X+X+X+X+X+XXX}."
};
