/* XPM */
static char *_be7e8f39af84943fcd0bbb5cd5e103eKfZUUEFQQ5L7eEcb[] = {
/* columns rows colors chars-per-pixel */
"50 50 214 2 ",
"   c #050101",
".  c #0C0201",
"X  c #140101",
"o  c #1C0000",
"O  c #1C0900",
"+  c #1A130F",
"@  c #1F1D19",
"#  c #240000",
"$  c #2B0101",
"%  c #270E05",
"&  c #340000",
"*  c #3A0100",
"=  c #390A03",
"-  c #2C1504",
";  c #2F160C",
":  c #3A1200",
">  c #391802",
",  c #271B17",
"<  c #371C15",
"1  c #272319",
"2  c #3E2016",
"3  c #2A302F",
"4  c #3F3835",
"5  c #430000",
"6  c #4C0000",
"7  c #480E00",
"8  c #540000",
"9  c #5B0200",
"0  c #520D00",
"q  c #5C0C00",
"w  c #4A1700",
"e  c #561800",
"r  c #600F00",
"t  c #691800",
"y  c #751B00",
"u  c #7D1C00",
"i  c #662401",
"p  c #782400",
"a  c #75380C",
"s  c #4F3529",
"d  c #413E3D",
"f  c #683A21",
"g  c #7E431B",
"h  c #774927",
"j  c #7F522D",
"k  c #78553C",
"l  c #524E50",
"z  c #655449",
"x  c #795F47",
"c  c #73655C",
"v  c #69666A",
"b  c #78716F",
"n  c #7C7C7C",
"m  c #8D1E00",
"M  c #802300",
"N  c #843C07",
"B  c #973801",
"V  c #883F12",
"C  c #A23A00",
"Z  c #93430D",
"A  c #854313",
"S  c #854515",
"D  c #954A10",
"F  c #AD4C00",
"G  c #AF5007",
"H  c #BB5506",
"J  c #A65419",
"K  c #A9571C",
"L  c #AF591C",
"P  c #B55A15",
"I  c #BE5A17",
"U  c #BD5C1B",
"Y  c #BD6315",
"T  c #8A5126",
"R  c #975526",
"E  c #845939",
"W  c #A55A24",
"Q  c #AC5C24",
"!  c #B05C20",
"~  c #99633F",
"^  c #A4622D",
"/  c #B46426",
"(  c #AC6C3B",
")  c #B46834",
"_  c #C64A00",
"`  c #C55604",
"'  c #CC5500",
"]  c #CD5A03",
"[  c #C05A0D",
"{  c #CE5E0B",
"}  c #D45500",
"|  c #D85901",
" . c #C45D15",
".. c #CC600D",
"X. c #DA6109",
"o. c #C6631C",
"O. c #C7661E",
"+. c #D36916",
"@. c #DB6D1C",
"#. c #DC721E",
"$. c #EB6503",
"%. c #E7650B",
"&. c #EC6B0C",
"*. c #F46602",
"=. c #FD6601",
"-. c #F46A04",
";. c #FE6B02",
":. c #F76609",
">. c #F46C0B",
",. c #FC6C0A",
"<. c #F67206",
"1. c #FE7103",
"2. c #F5710C",
"3. c #FC710C",
"4. c #E56A14",
"5. c #EC6D13",
"6. c #EC6E1A",
"7. c #F26E13",
"8. c #F46C17",
"9. c #EB7215",
"0. c #E57118",
"q. c #ED7219",
"w. c #F27213",
"e. c #FB7212",
"r. c #F1741B",
"t. c #FB781F",
"y. c #C56B25",
"u. c #CA6B26",
"i. c #D56D24",
"p. c #DD7224",
"a. c #D77529",
"s. c #D3732E",
"d. c #DC752D",
"f. c #CF6E30",
"g. c #CA7435",
"h. c #D57431",
"j. c #DA7A35",
"k. c #D47A39",
"l. c #E37422",
"z. c #EB7524",
"x. c #EB7927",
"c. c #E2762C",
"v. c #E27C31",
"b. c #9F704B",
"n. c #8F6C53",
"m. c #B27E59",
"M. c #826F63",
"N. c #84776B",
"B. c #827F7B",
"V. c #C47A45",
"C. c #9B8576",
"Z. c #C68150",
"A. c #747984",
"S. c #7C838A",
"D. c #7EB3CE",
"F. c #828486",
"G. c #83868A",
"H. c #85898C",
"J. c #848B92",
"K. c #8E9193",
"L. c #9B9596",
"P. c #A69C96",
"I. c #929DA9",
"U. c #99A5B4",
"Y. c #A8A6A4",
"T. c #AFB0B3",
"R. c #CBB29E",
"E. c #81B0CB",
"W. c #87B9D1",
"Q. c #8AB9D3",
"!. c #93BBD4",
"~. c #9ABFD8",
"^. c #AFBCC4",
"/. c #95C0D8",
"(. c #9CC2D9",
"). c #BFCACE",
"_. c #A4C5DC",
"`. c #ABCADE",
"'. c #BECDD7",
"]. c #B5CDDE",
"[. c #BACCDB",
"{. c #BCD1DF",
"}. c #9BC8E1",
"|. c #ADCCE1",
" X c #B3CEE2",
".X c #B9CFE1",
"XX c #ABD1E9",
"oX c #B5D1E4",
"OX c #BDD3E4",
"+X c #BAD6EA",
"@X c #BED6E9",
"#X c #C5D3DE",
"$X c #D2D6DB",
"%X c #C3D6E5",
"&X c #C8D7E5",
"*X c #C5D9E5",
"=X c #CADAE5",
"-X c #CCDBE6",
";X c #CEDBE6",
":X c #C2D7E9",
">X c #C4D7E8",
",X c #C8D7E8",
"<X c #C5D9E9",
"1X c #CBDCEA",
"2X c #CDDDE9",
"3X c #D1DDE7",
"4X c #D1DFE8",
"5X c #D1DEE9",
"6X c #D5DFE9",
"7X c #CCDFF0",
"8X c #D5E0EA",
"9X c #D4E1EB",
"0X c #D8E1EB",
"qX c #D4E2F1",
/* pixels */
";X=X%X#X#X%X%X%X%X%X@XOXOXOX%X1X2X9X9X9X0X6X6X4X=XOX`./.W.W.}.+X1X1X=X=X=X=X=X=X=X=X=X<X<X=X=X=X1X1X",
"3X;X=X%X%X%X%X%X%X%X@XOXOXOX:X1X2X9X9X9X6X6X6X3X;X=X%XoX/.D.Q.XX<X1X1X=X=X%XOXOX%X:X<X<X%X%X%X<X1X2X",
"3X;X;X=X*X*X*X*X=X:X@XOXOXOX:X1X7X4X9X9X6X3X3X3X;X4X4X7X XQ.D.}.+X<X<X:X%XOXOXOXOXOX%X%X%X%X%X%X1X2X",
";X;X=X=X=X*X=X=X<X<X@XOXOXOXOX%X:X1X2X4X3X3X3X4X4X9X9X9X:X(.E./.oX%X%X:X%X:XOXOXOXOXOXOX%XOXOXOX<X2X",
"=X=X%X%X=X%X*X=X<X<X:XOXOXOXOX.X.X%X=X2X3X3X3X4X9X9X9X9X1X|.!.(.oX%X%X:X:X<X<X%XOXOXOXOX%X%XOX.X%X;X",
"=X%X%X%X%XOXOX%X%XOXOXOXOX:X:XOX].{.=X2X4X9X9X9X9X9X9X9X2X:X XoX@X:X:X:X<X<X<X<X>X%XOXOX%X:X%XOXOX<X",
"%X%XOXOXOXOXOXOXOXOXOXOXOX<X1X<XOXOX%X1X4X9X9X9X9X9X4X4X2X1X<X:X:X:X@X@X:X<X<X1X1X<X=X:X:X<X%XOXOX%X",
"%X%XOXOXOXOXd d l OXOXOXOX<X2X1X%XOX%X1X2X4X9X9X4X4X3X;X2X2X1X<X:XOX X XoX:X<X1X1X1X1X1X<X<X>X%XOXOX",
"%X%X%X%XOXOX.   . OXOXOXOX:X1X2X<X>X<X1X2X2X2X2X2X;X;X;X;X1X1X>X.X_.~.(.|.@X<X1X2X2X2X2X1X1X=X%XOX{.",
"%X%X%X%X%X%X  . X 4 OXOXOXOX<X1X1X1X1X1X1X1X=X=X=X=X=X=X=X=X1X%X]._.!.Q.(.oX:X1X2X2X2X2X2X2X;X=XOX{.",
"%X%X%X%X%X%X. - % X '.OXOXOXOX<X<X1X1X1X1X1X1X=X=X=X;X;X&X%X%X%XOX X_.~.(.|.:X;X4X4X2X2X;X;X;X=X%X{.",
"%X%X%X%X%X%Xo k m.$ o B.OXOXoXOX:X<X1X1X1X%X. X X X X X X .   3 1X<XoX|.`..X>X2X4X4X4X4X3X;X;X;X=X%X",
"%X%X%X%X%X<Xo ~ V.q 0 n.OXoX].oXOX%X:X%X%XT.X : 7 7 0 0 w > . @ $X$X:XOX.XOX=X2X4X4X4X;X;X;X;X;X=X*X",
">X%X%X%X%X<Xo R d.@.k.T X  X`.`.oXOXOX  . o $ ) k.s.d.d.g.V.$ o o o M.OX{.OX=X2X4X4X4X;X;X;X2X2X;X=X",
">X%X%X%X%X<X# Q 9.-.0.D o ^.]. XoXOXOXX 7 q u X.r.&.>.&.5.x.u r e w E R.).%X;X;X4X4X4X;X;X;X2X2X;X;X",
">X%X%X%X%X%X# L >.;.e.C & o c OX@X:X%X# ) p.6.:.,.;.1.;.;.:.8.z.h.g.A $ o Y.;X2X2X2X2X2X;X;X2X2X;X;X",
">X%X%X%XOX%Xo W 7.;.,.} B N E N.:XY.n.V i.w.&.>.,.;.;.;.;.;.,.7.8.4.{ B N E L.1X2X2X2X2X2X2X2X2X2X2X",
"1X%X%X%XOXOX# W r.=.;.-.w.p.A & <Xz $ g.r.$.q.q.-.;.;.;.;.;.;.;.;.;.-.r.c.p # . 1X1X1X1X1X2X2X2X;X;X",
"=X1X%X%XOX.X# W 5.;.3.;.-.w.@.) - O & k.5.} 9 o.-.;.;.;.;.;.;.;.1.;.*.;.$.p.( X <X<X<X1X1X1X2X2X;X;X",
"=X=X=X%XOX.X# K r.;.*.;.;.;.-.i.$ o & h.w._ 6 O.>.;.;.;.;.;.;.;.;.;.;.=.;.5.y.& [.:X<X1X1X1X1X2X;X;X",
"=X=X=X=X<X@X# K 5.;.;.;.;.;.;.7.u.i 5 s.8.,.%.8.;.;.;.>.>.>.,.;.-.3.;.;.;.>.>.i.e , @X<X<X1X1X2X;X;X",
"=X=X=X=X1X<X# W 9.1.;.;.;.=.=.>.l.y 6 h.8.,.:.,.=.;.,.,.>.>.;.>.r.4.q.5.$.1.=.8.q # oX:X<X1X1X2X;X;X",
"=X=X=X=X=X1Xo R #.<.;.;.;.=.;.8.p.y 6 c.6.,.,.=.=.=.,.,.;.;.;.>.p.9 5 6 q.;.;.-.%.g.; OX:X<X1X2X2X2X",
"=X=X=X=X=X;XX j P 9.3.;.;.;.,.5.d.y 8 c.4.%.} &.;.;.;.;.;.;.;.>.l.y 0 q &.1.=.;.;.+.o oXOX:X1X1X2X2X",
"=X=X=X=X=X=X+ o * v.5.-.,.;.-.r.k.t 6 d.5.' 6 O.&.<.2.-.;.;.;.;.,.>.6.6.:.;.;.=.*.p.o OXoXOX%X1X2X2X",
"=X=X;X;X=X1XS.; & h.z.3.*.-.$.+.W e * j.9.] q J Y H 9.-.1.;.;.1.1.*.;.,.=.=.;.;.3.u.o OXOXOXOX%X1X2X",
"=X=X=X;X=X=X1Xn & h.5.:.>.} ` K o o 5 u.0.q.i.0 # & 0.1.;.1.;.,.&.2.,.*.;.;.>.&.] J X %XOXOXOXOX=X1X",
"=X=X=X;X=X=X=XK.& d.t.:.%.` G a X X * j.4.5.x.t : # F X.w.>.>.4.F H | ;.;.*.>.5.{ / X <X%X%XOXOX%X<X",
"=X=X=X=X=X=X<XT.* a.5.%.[ / a # . X 5 d.q.e.:.x.Z & * B d.l.x.y.& * m >.1.;.,.,.} U o <X<X:XOXOX@X:X",
";X=X=X=X=X1X<X:X= j.{ ..( i k P.P.s * f.5.;.;.*.` B Z N p u u p & a ` 2.-.3.=.,.| ! o =X<X:XOXOXoXoX",
"1X1X1X=X1X<X:XOX< V.P / b.# M. XOXz # Z.r.=.;.;.e.r.p.M 5 5 * * * P w.;.*.e.-.5.o.T O =X%X:XOX.X`._.",
"1X1X1X=X=X%XOXOXl b.^ T $ X b  XOXl . & X.1.=.;.=.;.9.p.y./ g.y.u.l.-.1.>.7.4.[ 0 $ . =X%XOXOX X_.~.",
"=X=X=X%X%XOXOXOXS.C.n.x X . A.|.oXl   # +.;.;.*.;.3.&.9.l.@.r.7.q.r.-.;.3.5.i.Q = X   :X%X%X:X@XoX|.",
"=X%X%X%X%X%X@X@XI.Y.2 o . |._.|.|.:X3Xo O.9.5.7.>.*.| ' ' } -.>.7.| } } ' [ K & o . %X%X:X:X:X:X:X@X",
"%X%X%X%X%X%XOXOXU.L.< % 1 _.(.(.(.|.:X- ^ y.o.c.6.&.| ' ` ] 4.5.5._ {  .J R E - , @ %X=X=X=X=X:X%X%X",
"%X%X%X%X%X%X%X%X[.v , K.oX X`._.(.`.oX1X: * * D I  .H H P P U I I o.L W $ o < =X=X=X=X=X=X1X<X=X%X%X",
"1X=X=X&X%X>X%X%X%XA.I.[.@XOXoX`.`.`.oX:XN.s o f g A A S S g g g N A h h c v F.1X=X=X=X=X;X1X1X1X<X>X",
"2X2X;X;X1X1X=X%X%XI.%X:X:XOXOXoX].`. XOX<X;X  X o o o o o o X X o # X . 1X=X=X1X1X=X=X=X;X2X4X2X2X1X",
"4X4X4X4X2X;X=X=X%X%X%X>X%X%XOXOXoX X XOX<X1XJ.J.G.F.F.F.F.F.F.G.G.H.G.J.=X1X1X1X1X=X;X;X=X2X9X9X4X1X",
"9X9X4X4X2X;X;X=X&X%X%X>X%XOXOXOXOXoXoXOX<X1X;X=X=X=X1X1X1X1X=X%X%XOX%X:X=X=X=X1X1X2X2X2X2X2X4X9X2X1X",
"9X9X4X4X3X;X;X=X=X=X%X%X%XOXOXOXOXOXOXOX<X1X1X1X1X1X1X1X1X1X%X=X%X%X%X%X:X:X=X=X<X1X2X9X9X4X4X2X;X%X",
"9X9X9X9X4X3X3X;X;X=X=X%X>X%X%XOXOXOXOXOX<X1X1X1X1X<X<X<X<X>X%X=X:X%X%X%X:X%X%X:X=X=X2X9X9X9X4X2X=X%X",
"9X9X9X9X9X4X4X4X;X;X;X;X;X1X<X=X%X%XOX%X%X>X1X=X%X%X%XOX:X:X%X<X:X:X:X%X:X:X=X=X%X%X=X2X9XqX9X2X%XOX",
"9X9X9X9X9X9X9X9X4X2X2X4X2X2X2X2X1X,X%X%X%X=X=X%X%XOX.X.XOXOXOX:X=X<X=X=X=X=X=X=X%X%X%X=X2XqXqX2X%XOX",
"9X9X9X9X9X9X9X9X9X9X9X4X4X2X2X2X2X-X1X1X1X,X&X,X>X%X].].]..XOX%X<X1X=X=X=X=X=X=X=X=X%X%X1X2X2X1XOXOX",
"4X9X9X9X9X9X4X4X;X;X;X;X;X;X;X;X;X;X-X=X;X1X1X1X;X>XOX.X.XOXOX%X<X1X=X=X1X1X=X=X1X=X=X=X=X1X1X%X.X].",
"4X4X4X4X9X4X3X;X;X;X;X;X;X;X;X;X;X;X;X;X;X;X;X;X2X1X1X%XOXOXOX:X<X1X1X1X1X1X1X1X1X=X=X=X=X=X<X%XOXoX",
"4X4X4X4X4X3X3X;X;X;X;X;X;X;X;X;X;X;X;X;X;X;X=X2X2X4X2X1X:X%XOX:X<X1X1X2X2X2X;X=X1X=X=X;X;X;X=X<XOXOX",
"4X4X4X4X4X3X;X;X;X;X;X;X;X;X;X;X;X;X;X;X;X;X;X2X2X9X9X2X<X%X%X:X<X1X1X2X2X2X2X;X;X=X=X;X;X;X-X=X%XOX",
"9X4X4X9X4X3X;X;X;X;X;X2X;X;X;X;X;X;X;X;X;X;X;X2X2X9X9X4X1X%X%X<X<X1X2X2X4X4X4X2X;X;X2X;X;X;X=X=X%XOX"
};
