/* XPM */
static char *_8d1da888c904e1fff6fa362c49a1ea0YkZ95L3GYKD98YeK[] = {
/* columns rows colors chars-per-pixel */
"50 50 223 2 ",
"   c #060000",
".  c #0C0000",
"X  c #120100",
"o  c #1C0201",
"O  c #1F110E",
"+  c #250200",
"@  c #2C0100",
"#  c #270A07",
"$  c #340200",
"%  c #3B0201",
"&  c #340B07",
"*  c #2B150D",
"=  c #38150A",
"-  c #2A1C1A",
";  c #391D15",
":  c #272424",
">  c #2F3033",
",  c #373538",
"<  c #540701",
"1  c #5A0D03",
"2  c #461504",
"3  c #491704",
"4  c #5A1705",
"5  c #481812",
"6  c #6A0400",
"7  c #680A03",
"8  c #7D0600",
"9  c #750A01",
"0  c #661703",
"q  c #6B1D0D",
"w  c #791D0A",
"e  c #54250D",
"r  c #462213",
"t  c #52251E",
"y  c #682308",
"u  c #792609",
"i  c #692612",
"p  c #723216",
"a  c #472B25",
"s  c #592C28",
"d  c #53352E",
"f  c #4C2F32",
"g  c #453133",
"h  c #4C3134",
"j  c #443B3D",
"k  c #4C3B3D",
"l  c #583837",
"z  c #673622",
"x  c #773C22",
"c  c #6A3A3C",
"v  c #5B413A",
"b  c #79442A",
"n  c #6A453D",
"m  c #3F3E41",
"M  c #403D42",
"N  c #50484B",
"B  c #565558",
"V  c #6B4B48",
"C  c #79594F",
"Z  c #675657",
"A  c #645B5C",
"S  c #765957",
"D  c #6D605C",
"F  c #5C5E62",
"G  c #615F62",
"H  c #57636A",
"J  c #6B686A",
"K  c #706E6F",
"L  c #79797B",
"P  c #860A01",
"I  c #8C1302",
"U  c #871B07",
"Y  c #841F0C",
"T  c #A91C00",
"R  c #982603",
"E  c #8A370A",
"W  c #983502",
"Q  c #963D14",
"!  c #A62B07",
"~  c #A53501",
"^  c #A43900",
"/  c #BB3C02",
"(  c #B03310",
")  c #CA3D00",
"_  c #9B410E",
"`  c #8C4117",
"'  c #984617",
"]  c #A94909",
"[  c #B64605",
"{  c #B7530B",
"}  c #A24B14",
"|  c #B64D1B",
" . c #AC5011",
".. c #B85618",
"X. c #894829",
"o. c #954C29",
"O. c #885238",
"+. c #AB4C21",
"@. c #A85C2D",
"#. c #B35224",
"$. c #BF6327",
"%. c #B36A3C",
"&. c #C74701",
"*. c #D74800",
"=. c #DA4D01",
"-. c #CA5705",
";. c #D55300",
":. c #DA5705",
">. c #DD5C03",
",. c #DB5D0A",
"<. c #CF4E12",
"1. c #C95916",
"2. c #D45C15",
"3. c #E25401",
"4. c #EC5400",
"5. c #E25C02",
"6. c #EB5800",
"7. c #F25D00",
"8. c #E35E18",
"9. c #C66117",
"0. c #D9681A",
"q. c #EB6303",
"w. c #EB6707",
"e. c #E2620C",
"r. c #EC6B0C",
"t. c #F46200",
"y. c #FF6500",
"u. c #F66A02",
"i. c #FE6A01",
"p. c #F1660F",
"a. c #F46C0B",
"s. c #FB6D0A",
"d. c #FE7104",
"f. c #FD700A",
"g. c #E36A13",
"h. c #E66A16",
"j. c #F26C12",
"k. c #EF711B",
"l. c #F77215",
"z. c #FB7315",
"x. c #F3721A",
"c. c #FA7319",
"v. c #C75222",
"b. c #CA6826",
"n. c #DE6E22",
"m. c #D16A2D",
"M. c #D16C31",
"N. c #D9763A",
"B. c #EB7223",
"V. c #E9742B",
"C. c #F37423",
"Z. c #F07628",
"A. c #E77831",
"S. c #9E6545",
"D. c #946D56",
"F. c #B97854",
"G. c #9D7B6A",
"H. c #81797A",
"J. c #A47E6A",
"K. c #CE7542",
"L. c #9B8174",
"P. c #B0836C",
"I. c #7B8187",
"U. c #7E8B93",
"Y. c #7FC1D7",
"T. c #9A8B84",
"R. c #848D94",
"E. c #8A8D93",
"W. c #8A949B",
"Q. c #999799",
"!. c #AC9C94",
"~. c #8C9CA4",
"^. c #989EA4",
"/. c #9EA2A4",
"(. c #95A3AC",
"). c #9AA4AA",
"_. c #9AABB5",
"`. c #A7A7A9",
"'. c #B5ADAA",
"]. c #A5AFB5",
"[. c #AAB5BA",
"{. c #B4B9BF",
"}. c #A5BBC7",
"|. c #ACBCC4",
" X c #ABBEC9",
".X c #B2BEC4",
"XX c #8AC5D9",
"oX c #95C7DB",
"OX c #96C9DC",
"+X c #9CCDDF",
"@X c #B5C3CA",
"#X c #BCC4C8",
"$X c #A7C6D3",
"%X c #A3CCDD",
"&X c #B9CDD7",
"*X c #B7D2DE",
"=X c #BCD2DD",
"-X c #92CEE2",
";X c #A2CEE0",
":X c #A6D0E2",
">X c #ACD3E3",
",X c #A2D4E8",
"<X c #B3D5E5",
"1X c #BBD6E4",
"2X c #B6D8E7",
"3X c #BCD9E7",
"4X c #B5DAE9",
"5X c #BEDAE8",
"6X c #C2D4DD",
"7X c #C2DAE6",
"8X c #C4DDEA",
"9X c #CADFEA",
"0X c #C7E0EC",
"qX c #CDE1EB",
"wX c #CEE2ED",
"eX c #D1E1EA",
"rX c #D4E2EA",
"tX c #D4E4EB",
"yX c #D1E3EC",
"uX c #D5E5ED",
"iX c #D8E4EC",
"pX c #CDE4F0",
"aX c #D5E6F1",
/* pixels */
"eXqX9X9X9X9X9X9X9X8X5X5X5X8X0XqXyXuXuXuXiXiXiXrXeXqX9X2X+XY.XX,X5X0XqXqXqX9X8X5X7X9X8X0X9X9X9X9X0XqX",
"eXeXqX9X9X9X9X9X9X8X5X5X5X8X0XqXyXuXuXuXuXrXrXrXeXtXeXpX2XXXY.-X4X8X0X8X9X8X5X5X5X5X7X9X9X9X9X9X9XqX",
"eXqXqXqX9XqXqXqX0X8X5X5X5X5X8X9X0XqXyXtXrXrXrXtXtXuXuXuX8X;XXXoX>X8X9X9X9X9X8X5X5X5X5X7X7X9X7X7X5X0X",
"qX9X9XqX9X9XqXqX0X8X8X5X5X5X3X3X7X9XqXeXrXrXrXtXuXuXuXuXqX<XoXOX>X8X9X9X8X0X8X9X7X5X5X5X7X9X9X5X3X9X",
"9X9X9X9X7X7X9X9X8X7X7X5X7X8X7X3X1X7XqXyXtXuXuXuXuXuXuXuXqX8X>X>X2X8X8X8X8X0X0X0X9X9X8X5X7X9X9X8X3X7X",
"9X7X7X7X5X5X7X7X7X5X5X5X8X0X0X8X3X7X9XqXuXuXuXuXuXuXuXuXyX0X8X8X8X8X8X8X8X8X0X0X0X0X9X9X8X9X8X9X5X5X",
"9X5X5X5X5XW.I.U. X5X5X5X8X0XqX9X7X7X9XqXyXuXuXuXuXuXrXeXqXqX0X0X8X8X5X2X2X8X8X0XqXqX0XqX0X8X0X9X8X5X",
"9X8X8X5X5XN - : ~.5X5X5X8X0XqX0X9X9X9XqXqXyXyXyXeXeXeXeXeXqXqX0X8X2X>X:X>X2X8X0XqXqXqXqXqX0X0X9X9X5X",
"9X9X9X8X7X>   . F  X5X5X7X9XqXqX0X0X0XqXqXqXqXqXqXqXqXqXqXqXqX9X3X>X+XOX+X<X8X0XqXyXqXqXqXqXqXqX9X5X",
"9X9X9X9X9X> X o - W.7X5X5X8X9X0X0XqXqXqXqXqXqXqXqXqXqXqX9X9XqX9X3X<X%XOXOX>X2X9XyXyXyXqXqXeXeXeXqX7X",
"9X9X9X9X9X, r z = Z ).&X5X5X5X9X0X0XqXqXqX6XR.E.E.E.E.E.E.R.U.~.&X5X<X:X;X>X2XqXeXtXtXyXeXeXeXeXqX9X",
"9X9X9X9X9Xg b F.p % V [.5X2X2X5X9X0X0X0X9X[.X + @ @ @ @ @ + . : _.9X8X2X<X2X7XqXyXtXtXtXeXeXeXeXeXqX",
"9X9X9X9X9Xg X.K.( Y o.T. X2X2X2X7X9X*X(.(.H.+ i w w Y Y u i # O H.`.{.=X3X3X9XqXyXtXtXeXeXeXeXeXeXqX",
"9X9X9X9X9Xg ` n.j.B.$.e J <X>X<X2X5X(.. o % 1 m.A.B.C.C.V.N.q % $ @ n '.6X7X9XqXeXtXtXeXeXeXeXyXqXeX",
"9X9X9X9X9Xh ' r.i.i.-.y Z |.*X2X2X7X(.@ 7 P T t.d.i.i.i.i.c.( I w q X.P.'.#X9XeXeXtXtXeXeXeXeXwXqXeX",
"9X9X9X9X9Xf _ w.y.i.=.w % d Q.1X8X7X^.4 M.x.i.y.i.y.i.y.y.y.y.z.Z.A...y & Z #X9XqXqXqXqXwXeXeXwXqXeX",
"9X9X9X5X9Xg ' w.i.y.7.&.^ ' D.`.&X!.S.] k.i.i.i.i.y.y.y.y.y.i.i.i.i.q.&.^ ' G.{.qXqXqXqXqXqXqXqXqXqX",
"9X9X9X5X5Xh ' r.y.y.y.i.a.1.u S [.n i V.i.y.d.i.y.y.y.y.y.y.y.y.y.y.y.i.l.| 0 # F qXqXqXqXqXqXqXqXeX",
"qX9X9X5X3Xf ' w.i.i.i.y.i.a.0.X.; & i A.y.=.I e.y.y.y.y.y.y.y.y.i.i.y.y.y.p.b.z B 0X0X0XqXqXqXqXqXeX",
"qXqX9X5X3Xf _ r.i.y.y.y.y.i.j.} @ @ q Z.i.) 7 0.i.y.y.y.y.y.y.y.y.y.y.y.y.i.h.Q Z 7X8X0XqXqXqXqXqXeX",
"qXqX9X9X8Xh _ w.i.y.y.y.y.y.i.e.Q 1 w B.i.7.=.u.y.y.y.i.i.i.i.y.y.i.i.y.y.i.i.e.+.n L 8X9X0XqXqXqXeX",
"9XqX9X0X0Xh ' r.i.i.y.y.y.y.y.s.<.9 Y B.i.y.y.i.y.y.y.i.i.i.y.i.i.i.i.i.y.y.i.y.&.< N 5X8X0XqXqXqXeX",
"qXqX9XqX0Xh ` g.s.i.y.y.y.y.y.s.<.8 Y C.i.i.y.y.y.y.i.i.y.y.y.i.s./ R R *.i.y.y.6.[ O.L 8X8X0XqXqXeX",
"qXqXqXqXqXg b 9.u.i.i.y.y.y.i.s.<.8 Y C.i.y.7.y.y.y.y.y.y.y.y.i.l.! 6 6 / i.y.y.y.a. .k 5X8X8XqXqXqX",
"qXqXqXqXqXj r u 2.f.i.y.y.y.i.l.v.8 Y C.y.3.! r.y.i.i.y.y.y.y.y.s.=./ / 3.y.y.y.y.u. .k 2X2X8XqXqXyX",
"qXqXqXqXqXK ; % #.c.i.y.y.y.i.h.+.6 u Z.i.*.9 2.q.q.i.y.i.y.y.i.i.y.i.i.y.y.y.y.y.a. .k 5X2X5X8XqXwX",
"qXqXeXqXqX|.D 5 +.x.s.y.y.7.5.{ i < w B.i.5.! W E W u.i.i.i.y.i.i.i.y.y.y.y.y.y.y.e.' k 7X5X5X5X9XqX",
"qXqXeXqXqXqX/.s +.l.y.y.7.=.-.u o @ w B.i.i.h.6 % % >.u.i.i.i.i.q.q.t.y.y.y.y.i.t.:.` j 9X7X7X5X7X9X",
"qXqXeXqXqXqX[.l | l.i.t.5.-.W 3 X + u Z.i.i.j.R 0 $ W ;.a.s.s.a.[ ^ ) 4.i.y.y.i.t.,.' j 0X9X9X5X5X9X",
"qXqXqXqXqX0X#Xc | j.t.e.1.} p a - & w C.i.i.y.c.[ 1 1 ~ 2.2.8.2.q < I =.i.i.y.y.7.3._ k qX0X8X5X5X5X",
"qXqXqXqXqX0X9XV #.g.>.b.o.x L.'.T.s q V.i.y.y.y.5./ [ W U P P P < u &.t.i.i.i.y.t.,.` k qX8X8X5X3X2X",
"qXqXqXqX0X8X7XZ @.b.9.%.z l /.2X].v e N.i.y.y.y.i.d.x.! 7 7 1 1 1 ] q.i.y.i.i.y.q...p k 9X9X8X5X2X>X",
"qXqXqXqX9X5X5XI.D.%.@.i + k ).2X_.j o 0 t.i.y.y.y.y.i.x.n.b.N.n.n.k.s.i.i.i.i.q.~ < + , 9X9X5X5X2X;X",
"qXqX9X9X5X5X5X(.T.J.D.a X M (.<X_.j . 4 q.y.y.y.y.i.i.i.l.r.f.i.i.d.i.y.i.i.a.n.Q % . , 8X9X9X8X5X2X",
"9X9X9X9X9X8X8X}.`.C = o H %X;X>X<X=X^.3 g.d.i.i.i.y.4.3.3.4.y.i.i.7.4.4.4.>.-.E % o m =X9X8X8X8X8X8X",
"9X9X9X9X9X7X5X X`.V & * L ;X+X+X:X2X`.e b.0.g.C.i.y.4.3.:.3.t.i.i.4.3.>.-...@.x = - B 9XqXqXqXqX8X9X",
"9X9X9X9X9X9X9X=XQ.k Z ~.$X>X:X%X;X<X*XQ.4 0 0 { >.e.;.;.-.-.,.,.>.,.2.1.E 2 5 D {.|.@XqXqXqXqXqX9X9X",
"9X9X9X9X9X9X9X7X^.I._.=X5X2X<X>X>X<X2X@XC t & ` } ] ] ] ] } } } ] ] ' o.O.Z J /.qXqXqXqXqXqXqX0XqX9X",
"qXqX9XqX0X9X9X9X[.|.1X8X8X5X2X2X<X<X2X1X.XQ.X = 2 2 2 2 2 2 = = 2 3 2 = K .X@X6XqXqXqXqXqXeXqXyXqXqX",
"eXeXeXqXqXqX9X9X=X1X9X9X8X7X5X2X2X<X2X7X0X=XF G A A A A A A A A A A A F ).qXqXqXqXqXqXqXqXqXyXuXyXtX",
"uXtXtXyXeXeXqX9X9X9X9X9X8X7X5X5X2X2X2X7X0X9X@X@X.X.X.X.X.X.X.X|.|.|.|. X=XqXqXqXqXqXqXeXqXqXyXuXuXyX",
"uXtXtXeXeXeXqX9X9X9X9X9X7X5X5X5X5X2X5X7X0XqXqXqXqXqXqXqXqXqX9X9X9X8X9X9X9X9X9XqXqX0XqXyXyXyXtXtXyXeX",
"uXuXuXrXeXeXeXqXqX9X9X9X8X7X7X5X5X5X5X7X0XqXqXqXqX0X0X0X0X0X9X9X9X9X9X9X9X9X9X9X9XqXqXyXuXuXuXtXqXqX",
"uXuXuXuXrXrXeXeXqXqX9X9X9X9X9X8X7X7X7X8X9X0XqXqXqX9X9X9X8X9X9X9X9X9X9X9X9X9X9X9X9X9XqXeXuXuXuXuXqX9X",
"uXuXuXuXuXuXuXeXeXeXeXeXqXqXqXqX9X9X7X9X9X9XqX9X9X9X7X3X8X8X8X9X9X8X9X9X9X9X9XqX9X9X9XqXqXuXaXuXqX9X",
"uXuXuXuXuXuXuXuXyXyXyXtXyXqXqXqXqX9X9X9X9X9X9X9X9X7X2X2X3X3X5X8X9XqXqXqXqXqXqXqX9X9X9X9XqXqXaXaXqX9X",
"uXuXuXuXuXuXuXuXuXuXuXeXeXqXqXqXeXeXqXqXqX9X9X9X9X9X2X1X2X2X5X9X9X0XqXqXqXqXqXqXqXqX9X9X9XqXqXqX0X3X",
"uXuXuXuXuXtXtXeXeXeXeXeXeXeXeXeXeXeXeXqXeXqXqXqXqX9X7X3X1X5X5X9X9X0XqXqXqXqXqXqXqXqXqXqXqXqXqX0X9X1X",
"uXuXuXuXtXrXeXeXeXeXeXeXeXeXeXeXeXeXeXeXeXeXeXeXqXqXqX9X7X7X5X8X8X0XqXqXqXqXqXqXqXqXqXqXqXqXqX0X9X5X",
"uXuXuXuXrXrXeXeXeXeXeXeXeXeXeXeXeXeXeXeXeXeXqXqXqXtXqXqX8X9X7X8X8X0XqXqXqXqXyXqXqXqXqXqXeXeXeXqX0X5X"
};
