/* XPM */
static char *cbd85e015d324df886dee0ed2e5c7acf59yFbi2lbfjlRWqc[] = {
/* columns rows colors chars-per-pixel */
"50 50 81 1 ",
"  c #73B4D5",
". c #7BB6D6",
"X c #7AB8DB",
"o c #85B9D2",
"O c #8ABAD4",
"+ c #83BADB",
"@ c #8ABCDB",
"# c #93BED7",
"$ c #98BED3",
"% c #90BDDA",
"& c #99BFD8",
"* c #84BDE1",
"= c #96C1DB",
"- c #9BC3DB",
"; c #A4C5DD",
": c #AAC6DC",
"> c #A3C9DE",
", c #ACCADE",
"< c #B3CCDE",
"1 c #B5D0DF",
"2 c #96C3E2",
"3 c #9CC6E2",
"4 c #A5C7E1",
"5 c #A4CAE3",
"6 c #ACCDE2",
"7 c #ABCEE9",
"8 c #B3CEE2",
"9 c #B8CFE4",
"0 c #B1CFE8",
"q c #ADD0E6",
"w c #ABD2E9",
"e c #B5D1E4",
"r c #BCD4E5",
"t c #BFD8E6",
"y c #B5D4E9",
"u c #BDD5E9",
"i c #B7D8EB",
"p c #BED9EA",
"a c #BDDBF0",
"s c #C1D3DF",
"d c #C3D6E5",
"f c #C4D9E6",
"g c #CBDBE7",
"h c #C5D7E8",
"j c #C1D8E8",
"k c #C1D8E9",
"l c #C6D8E8",
"z c #C7D8E8",
"x c #C7DBE8",
"c c #C7DBE9",
"v c #C5DAEB",
"b c #C7DBEB",
"n c #C2DCED",
"m c #C4DDED",
"M c #C8DAEA",
"N c #CCDBE8",
"B c #CDDBE8",
"V c #CADCE9",
"C c #CEDCE8",
"Z c #CEDDE9",
"A c #CDDDEB",
"S c #CADBEC",
"D c #C8DFEF",
"F c #CEDFEE",
"G c #D1DDE7",
"H c #D0DEE9",
"J c #D2DEEB",
"K c #D0DFEC",
"L c #D3DFEC",
"P c #C0DCF0",
"I c #CBDFF0",
"U c #CFE0EB",
"Y c #CBE1EF",
"T c #CCE0EC",
"R c #D0E0EA",
"E c #D2E0ED",
"W c #D4E1ED",
"Q c #D8E2ED",
"! c #CEE0F0",
"~ c #D6E3F1",
"^ c #D9E2F1",
/* pixels */
"qyyeeuupnDDFKHKHHCCggVVgMMggVDu-=5yyyyyeeyyq-@@***",
"kue<88eeumFFKEEEEHCCCCCCCBBCBCYp6eupppputuup6-@++X",
"ldre8eeeuulFFKKEECCCCCCCCCCCBCUTlkkkkkkktuuur4%+. ",
"gVlkuuuuueuMFKHHHCFFCCCCCCCCCgBCCVMfffreuuuuuy73@+",
"BBMlkuuureedMFHCCFCCCHGHHCCCBBgVMggggle::upkkkuy52",
"BBMfkkkkkuurdVHHCMdklVCRRCCCCMMggggggMVkerkkhhhu03",
"CCBghllfkkturlEHCd<,<8uDKKCCCVVggggggMCKFMMllllhy5",
"HGGgllfffkkurkFKFFhure<,ekIFCVVVVgggVVCCKKKCCCMMk8",
"HGHCfdlffkktrkDEW~^^ED8-#-aIDVMMMMMMMMgCHHHHHHHBMr",
"HGHHCggffffkukFEWWQQHKSk5O5PmMlldllMlfgCCHHHHHHHMk",
"HHHHHCCVVVlludVFEERHHK~~D;owkkhlrrdllddfCCHHHHHHCl",
"HHHHBgggMMMldurekTRWWWWQWuO5ukklldrdlldsMEHHHHHHCM",
"GGHClllfffllkkkurlCWWWWQWFeeklllllfldflddCERRHHHFM",
"BBMMldddkkddukDDddVEWWWWWKDmMlkklVgggggfdlCHRHHHKC",
"CCCMldkkkkkkuul!DkVHKWWWHCCTlr,6plVCCCCgldfCEKHHKS",
"CCCCMkkkkkkktukmIDVCHHHHCBCCk,$&6kDCHHHBfddgCHHCMh",
"CCCCgfkllfkktuukmIDDVVBMMMBMhr,-;uDFHHHHBlsdgMgglu",
"CCHCVfkflffktuuuumDDMMVDDMMMCKSr8uDKHHHHHCffgfddlu",
"CGHCCMfdffffkkureedkkllmlhlFEWKluuDEHHHHHCCVVggglk",
"CCHHCCffffffktue<1rruuur88uFWWWMddVFHCCCCCHCCCggll",
"BCHHCCgfffkkuureerkkku8,888kF~WCflVCCCCCCCCUUCggfl",
"BCCHHBMflldkuuuuukDVkueerr88rFFMlllSCCCCGCCCCCBgff",
"BCCHHBMMlduuuukkuklMfkfllu9<<rurrrukSCCCCCCHRCCMgl",
"BCCHHBBMglu<;>5eeeufMCCVMlkr8rrrrreeukggCCCCRCCBgl",
"BCCCCBBCVMlu>-#>6ekFFCCCCMSlllkuuur8:<efMVCCCCCBgl",
"MCCCCBBCVCBMlu68yukFKCCCCCCMMllurruy86<rkVFCCCCBgl",
"SCCCCBBCVCBCCleruudSKCCCCCCBMmhdreruyreeukDFCCCCCl",
"MCCCCCCCVCBCFDrruuulFCCCCCCBMhhldeeeruureulFKKHCBg",
"lggCCCCCVCCCCFldduulFCCHCCCBCMMMhde<8ruuurufCFCCCg",
"ngVVVCCVVCCCCCVMlddkDCCCCCBCCCBBMhde:8yukdudfMCCCV",
"plVMVCCCCCCCVgggfkuuulVVCBBCCCBBBCSk<:9kllkddflMVM",
"iklDMCCCCCCCCgglke886ekVCCBBCBBBgMVDr<8ulllkkkkfdk",
"yuklMMCCCCCVVMfde,:66etVCCCBBBBCgggVl9<umlllue,665",
"yuuklSVCVCVVVfdee8668eulCHHCCCCCCBgfMlrukkkkd8;=@@",
"yuupukmVVMVMldrruuyy86etCHHHHCCCCCgflMlkdkkhlku63+",
"pfkkueuklMMlflllkku98:;8lHHHHCCCCBgfffllfkllllkpy3",
"klMFlueedMlfflddlldue8:,rMHKHCCCBgffglffMllDVMfdue",
"mDFKE!le<kVMBBgggghhkue88dFKKHCBBgddfVVMMVMFFFVgbu",
"mVCCHKKDlfCKKKHBBgglhkuee9MFKCBBMgfdfgVVVVCBFKEFDl",
"mVgCCEEECBKWWWHHCBMglhuurehCCCMMMgfffffMVVCEKHEEFl",
"lggCUEWWHHKWWWWHHCBMffdrrrkSFFMMMMffffffMMCEWEREVd",
"lggCEEWWEHHWWWWWKKBBMMlkdrdSCCMlmllllfffffMVE~WKlr",
"lggVUURRUCHRWWWWWWWKKCCFMhdlMfldrdklllffffflgE~Elu",
"lVVCCUCCCCCHRWWWWWWEHHCHKCMMMfld18erfMMllllflgEElu",
"lgVgCCCCCCCCHHWWWHHHCCCCCHBBBBCFd9erklMVVVVMggVVde",
"MgggCCCCCCCCHHHHHHHHCCCCCHHCBCHKClrrulMVVVVggVCVlr",
"MggVCCCCCCCCCCHHHHHHCCCCCHHHBCHKHCfudfMVCCVgVCCVVl",
"MBCCggCggggCCCCCCCCCBBCCCCHHCHHHHHMfkfMCCCCVVCCCCl",
"BCCCgggVggMMBCCCCCCCgBCCCCGCCHHHHHClffgCCCCCCCCCCg",
"CHKCggCCMMffMMCCCCCgggCCCCCCCCHHHHCVgggBCCHHHRHCCg"
};
