/* XPM */
static char *_d8a929d1e5a4fe88fb776c51cfcc743amLrHBMIZ7YrSjBs[] = {
/* columns rows colors chars-per-pixel */
"50 50 244 2 ",
"   c #09181B",
".  c #231E13",
"X  c #19251B",
"o  c #322C15",
"O  c #372B1E",
"+  c #081926",
"@  c #171F21",
"#  c #08242A",
"$  c #152A29",
"%  c #092938",
"&  c #172938",
"*  c #09323E",
"=  c #17343A",
"-  c #262A24",
";  c #30332E",
":  c #26363A",
">  c #46300F",
",  c #443B27",
"<  c #37473D",
"1  c #52472C",
"2  c #4A4334",
"3  c #594A39",
"4  c #5B5238",
"5  c #6C4D28",
"6  c #776734",
"7  c #092C48",
"8  c #093A4A",
"9  c #173746",
"0  c #13314A",
"q  c #163953",
"w  c #263A47",
"e  c #303747",
"r  c #233C56",
"t  c #1A4C53",
"y  c #194558",
"u  c #27454B",
"i  c #354746",
"p  c #3C564D",
"a  c #274758",
"s  c #334855",
"d  c #2A5555",
"f  c #385659",
"g  c #1B4D65",
"h  c #1D586D",
"j  c #264C68",
"k  c #364D67",
"l  c #2A5868",
"z  c #375768",
"x  c #295B76",
"c  c #355A76",
"v  c #2A656C",
"b  c #376168",
"n  c #34716C",
"m  c #2D6477",
"M  c #346272",
"N  c #35647B",
"B  c #396979",
"V  c #39737A",
"C  c #50524A",
"Z  c #465658",
"A  c #6B5941",
"S  c #5E665D",
"D  c #6D6B54",
"F  c #455966",
"G  c #575C60",
"H  c #445874",
"J  c #476368",
"K  c #576967",
"L  c #4B7464",
"P  c #476878",
"I  c #546B78",
"U  c #43737C",
"Y  c #49787A",
"T  c #587678",
"R  c #71766F",
"E  c #6B7574",
"W  c #926F33",
"Q  c #9B7437",
"!  c #A17232",
"~  c #87734E",
"^  c #977849",
"/  c #8F7459",
"(  c #A37C4E",
")  c #827E61",
"_  c #4C867D",
"`  c #7A8277",
"'  c #958756",
"]  c #AE8C55",
"[  c #BCA55F",
"{  c #988E6C",
"}  c #AB986E",
"|  c #B89667",
" . c #A99B77",
".. c #B6A469",
"X. c #B3A570",
"o. c #CB984C",
"O. c #CA9A54",
"+. c #D69C57",
"@. c #CDA34D",
"#. c #CAA458",
"$. c #D5A257",
"%. c #CA9C6A",
"&. c #C9A768",
"*. c #CFB070",
"=. c #3C5E82",
"-. c #2C6686",
";. c #376886",
":. c #3B7685",
">. c #326792",
",. c #387492",
"<. c #456986",
"1. c #516C8D",
"2. c #477787",
"3. c #567886",
"4. c #487B96",
"5. c #527C99",
"6. c #677D89",
"7. c #487DA3",
"8. c #3E8290",
"9. c #498288",
"0. c #54868B",
"q. c #4C8596",
"w. c #578997",
"e. c #4D9393",
"r. c #54939B",
"t. c #68858B",
"y. c #658896",
"u. c #788F94",
"i. c #669499",
"p. c #5EA59D",
"a. c #6FA79B",
"s. c #4886A9",
"d. c #578AA4",
"f. c #5B96A7",
"g. c #5795B5",
"h. c #668EA8",
"j. c #6899A7",
"k. c #7799A7",
"l. c #659AB6",
"z. c #7A9EB5",
"x. c #5EA0AB",
"c. c #69A7AA",
"v. c #76A9A8",
"b. c #77B4A9",
"n. c #7BBAAC",
"m. c #6BA8B7",
"M. c #76A9B7",
"N. c #6DB9B6",
"B. c #74BBB4",
"V. c #7BBDB2",
"C. c #7AB8BB",
"Z. c #79C0AC",
"A. c #78C2B7",
"S. c #7CC2BC",
"D. c #6BA5C4",
"F. c #78B1C5",
"G. c #7BB6C6",
"H. c #7CC4C4",
"J. c #889592",
"K. c #AB988D",
"L. c #89A19E",
"P. c #ADAC8D",
"I. c #869DA6",
"U. c #959EA0",
"Y. c #88A9A7",
"T. c #98AAAA",
"R. c #86B9AA",
"E. c #88A7B8",
"W. c #95AABA",
"Q. c #87BAB7",
"!. c #97BBB9",
"~. c #A9B4B7",
"^. c #C9B090",
"/. c #8FC5AE",
"(. c #88C4B9",
"). c #95C4B9",
"_. c #A5CEBE",
"`. c #E6D198",
"'. c #DEDBA5",
"]. c #E6D9A9",
"[. c #F2DDAA",
"{. c #F4E1A8",
"}. c #EDE8B9",
"|. c #88B9C8",
" X c #96B8C6",
".X c #91B1C8",
"XX c #88BAD4",
"oX c #A5BBC7",
"OX c #B9BFC9",
"+X c #A5BED1",
"@X c #8BC5C9",
"#X c #97C5C5",
"$X c #93CFC9",
"%X c #96C5D5",
"&X c #A8CCC8",
"*X c #B9C6CA",
"=X c #A9D5CA",
"-X c #B5D3CE",
";X c #AAC8D7",
":X c #B8CAD9",
">X c #A6D7D9",
",X c #B7D5DC",
"<X c #ACE7DA",
"1X c #B5E7D9",
"2X c #9CCDE1",
"3X c #ACCCE2",
"4X c #B7CFE2",
"5X c #A7D8E7",
"6X c #BDD3E4",
"7X c #BAD5E8",
"8X c #B8E7E7",
"9X c #BCF1E8",
"0X c #BBEAF4",
"qX c #ADF3FB",
"wX c #BDF1F4",
"eX c #C2CBD1",
"rX c #C9D6DA",
"tX c #C4E5D9",
"yX c #D2E4D8",
"uX c #EFEDD2",
"iX c #C3D6E5",
"pX c #C8D7E7",
"aX c #C5D9E5",
"sX c #CCDCE6",
"dX c #C3D7E9",
"fX c #C5D9E9",
"gX c #CCDCEA",
"hX c #D0DDE7",
"jX c #D1DEE9",
"kX c #C9E9E9",
"lX c #D4E1EC",
"zX c #D8E3E9",
"xX c #C9F8EA",
"cX c #D6FAEB",
"vX c #C7ECF8",
"bX c #D6E6F4",
"nX c #CAF8F9",
"mX c #D5F9F5",
"MX c #D4FEFD",
"NX c #DBFFFD",
"BX c #E4FDEA",
"VX c #E2EBF2",
"CX c #E7FAFA",
"ZX c #E3FEFE",
/* pixels */
"sXsXiXrXrXiXiXiXdXdX6X7X6X6XdXgXgXlXlXlXzXjXjXsXsX6X;X%XXXXX2X7XfXsXsXsXaXaXaXaXaXaXaXaXaXaXaXaXsXsX",
"hXsXsXiXiXiXiXiXiXdX6X7X6X6XdXgXgXlXlXlXjX~.*X*X*X:X:X4X%XG.XX3XfXgXsXaXaXdXiXiXiXaXaXaXiXiXiXfXsXgX",
"hXsXsXsXaXaXaXiXfXdXdX6X6X6XdXgXgXgXrXrXu.F E R R K F W.;X|.G.2X7XfXfXaXdX7X6X6X6X7XdXdXdXdXiXiXsXgX",
"sXsXsXsXaXaXaXaXfXfXdX6X6X6X6XdXiX6.& s k.6XCXyXBXmX-Xt.f & z.%X4XdXdXaXdXdX7X6X6X6X7X7XdX7X6X6XfXgX",
"sXaXrXrXrXrXrXrXrXrXrXrXrXeXJ.;Xu.9 T #XNXkX1XR.R.1XxXmXY.J a y.+XdXdXaXdXfXfXdX6X6X6X7XdXdX6X6XdXsX",
"aXP.P. . .{  .{ ' ] ^ ( { R : # P P k.MX1XR.b.Z.Z.n./.mX,X2.3.d u 3.dXdXfXfXfXfXfXdX6X7XdXdXdX6X6XfX",
"X.X.} ....X.} X...&.X. .2 < f j.v.w.0.9X(.Z.B.C.C.V.n.<X>XY v.j.w.l W.oXdXfXfXsXsXfXaXaXdXfXdX6X6XiX",
"[.[.{.[.{.{.{.{.[.].uXK.@ u 9.c.5Xi.i.nX(.Z.S.C.C.(.b.<X8X0.Q.@Xl.B % & :XdXsXsXsXsXsXsXfXfXfXdX6X6X",
"%.%.%.%.%.%.O.#...X.S : a 2.x :.nXi.M wX1XR.A.B.V.b./.xX%Xy >X@XM N B q a :XfXgXgXgXgXgXsXsXsXiX6X,X",
"Q Q W W ( ! ! Q ' D i y.;.;.:.|.5Xw.v |.NX1Xa.(.n.(.xXxXj.N j.0Xl.m ;.5.2.k iXgXgXgXgXgXgXgXsXaX6X,X",
"*.*.*.*.*.*.*.^.) X P |.;.-.2.%X<.|.|._ $X1X1Xb.).9X<XQ.Y >Xw.j.F.;.;.5.G.9 F sXhXhXhXgXsXsXsXsXiX,X",
"'.'.'.}.].[.].uXK u y.5.x ;.%X|.N @X9Xb._ _ <XQ.&X#X_ _ ).9XM.m 5Xl.N g j.4.= *XhXhXhXhXhXsXhXsXaXiX",
"C 2 1 , , 2 2 i s P .Xq 7 w.|.j.G.B.9XxXi.v V q.5.B b R.NX$X(.m.m.@XN % ;.M.z F sXhXhXsXsXsXsXsXsXaX",
":XO 2 2 { - G & k <.3.0.g g 2.q.x.p.$X=X9X>Xh.N h.M.8XNX1X/.e.N.:.2.q B q.:.U 9 I hXhXsXsXsXgXgXsXsX",
"pXO 4 D ~.; C & k <.V C.f.h N d.r.r.n.b.nXNX,X3.vXmXZX8X(.V.:.m.2.c c M.m.v V a & iXhXgXsXsXgXgXsXsX",
"K.A ' 4 R C : & c B f.H.qXq.q h.f.r.(.V.(.MXkXT ZXmX).(.n.S.9.m.<.y E.wXm.d.B y % 1.gXgXsXsXgXgXgXgX",
" .' W ' } D i 9 c m F.q.5X0XY M f.C.S.b.B.>X8XT ZXQ.b.V.Z.B.C.9.b j.nXG.j.l.M y g q iXgXgXgXgXgXgXgX",
"sXuX}.uXP.; P c 8 l.q.m 2.>XNX;X9.V c.$XN.S.wX3.NX8XB.B.H.r.V c.8XnX@XV x h.2.y -.x f gXsXgXgXgXsXgX",
"3 C 3 C ; i c l.,.,.:.f.v 0.,XNX>Xl m 2.m.@X|.:.%X%XC.f.q.y w.vXMX!.n 9.d.<.N d.s.,.* oXsXsXsXgXsXsX",
"rX*XU.~.w a -.D.4.-.;.G.C.v.&XZX0XU w.0.2.U U M U U 2.B i.2.j.nXNX(.c.C.z.x M m.s.x 9 J :XsXsXgXsXsX",
"sXsXlX*X  k ;.l.XX2.N m.Q.b.=XNXQ.w.kXyXtXtXY.R.Y.!.tXrXcX-X3.8XmXR.(.G.l.x w.|.7.>.9 & !.sXsXsXsXsX",
"sXsXlXW.0 1.;.g.vXw.N 2.Q.n.&XmX2. XCXBXBXcXcXxXmXcXcXBXBXCXw.M.NXQ.V.c.:.l |.8X4.;.z w E.sXsXgXsXsX",
"sXsXkXy.7 <.-.l.nX3.9 B C.b.=X=Xt %XZX=XR.n.(.B.B.@XR.R.,XZXj.M wX(.(.c.g 9 !.8X4.c I w vXlXgXgXgXgX",
"sXiXiXa r <.m f.nX#X9 8 V B.>X&Xt 2X>XU c.A.A.A.A.N.S.0.y.nXj.n wXQ.c.v * b kX,X5.N P & 3.mXsXgXgXgX",
"sXsX*X# = u :.f.nX XU M.V :.|.h.2.8Xk.x c.H.B.A.A.B.S.r.j %X%XV v.v.v q.j.U 8X,Xq.M 0 0 = :XaXsXgXgX",
"sXrX*X- Z 9 j.G.wX0.Y nXC.2.2.q B 2Xh.2.V c.V.n.b.(.r.;.4.|.|.t d P 0.5X5Xl @X>XM.q.0 H s VX6XiXsXgX",
"sXhXOX: Z * d.G.C.2.M.M.nXvXI.9 9 |.vX|.q.w.Q.!.#XR.V w.5XvXw.* d #XMX5XG.r.q.G.C.2.7 H w CX6X6XaXsX",
"sXhXOX& F % g D.4.V M.V V #XNX&X3.B B l j.0X,Xk.Y.kX>X4.l M 2.t.kXxXc.l r.x.v c.e.8 0 H e VXiX6XdXfX",
"sXsX:X= H c -.g.4.D.,.-.:.|.$XxXZXY.J 9 % % = # = % % * u P tXcXtXQ.|.m x d.f.f.8.:.y H w OXgX6X6XdX",
"sXgX:X9 P h.D.x h m.7.-.,.@XB.b.1X*X: = t.Y.t.s J.L.u.f % Z kX_.R.V.M.-.-.f.w.t V M.3.z w VXsX6X4X7X",
"sXgX;X9 z t.Q.0.t i.4.4.-.c.S.a.1XL.G Z ~.*X~.G eX*X~.T J J &X).n.B.f.>.,.d.U b i.Q.P s w bXaX4X;X;X",
"sXsX,Xb   I Y #X9X_ ;.l.q.r.S.(.i.-XCXZ : - . O . . < $ L.ZXY.v.Q.C.8.g.g.x v.nXi.w.w # 9 fX,X4X;X+X",
"sXsXpXW.  s <.4.>X8X9.N m.F.l.@Xf k.T.- O D {  .} ' C X p -Xs k.m.m.G.g.x j.nXQ.2.c = $ a ;XaX7X4X3X",
"iXiXiXiX+ r <.;.c.<X>X2.b a y U f K i o ~ ^ &.{.`.] ~ 4 X K f I b 8 h m j.vX>X0.x <.= $ 3.vX6XdXdX6X",
"iXiXiXiX3.j >.>.r.n.<X>XY = k.P F E o 4 [ #.o.O.O.#.| ~ O ; J.e u.6.# i.9X>Xm.4.;.;.9 & 1.bXaXdXdXdX",
"iXiXiXiX:X7 >.-.m 0.b.mX#XJ ZXt.I.J.. } *.@.$.+.$.$.$.( 5 . eXZ *XzXs nX1Xc.,.-.;.j 0 r 1.dXaXaXdXdX",
"sXsXsXpXiXW.q ;.;.q.|.NXvXt.cXp u.E 2 ~ ^ ] +.+.o.+.$.] ~ O ~.f u.kXT ZXxXp.4.;.c * y <.H sXgXsXfXiX",
"gXgXsXsXsXsXk.q c XX|.5XvX0.cXL p C 3 K.^.5 O.+.$.+.o.*.' O Z u R.vXP ZX$XV.j.c % r ;.<.;XgXhXgXgXsX",
"hXhXhXhXgXsXsXj j 5.|.@X%X0.1XL K S , ^.^.> [ #.$.o.@.*.^ > J.u v.>X<.5XV.V.P 7 r =.<.z.sXgXlXlXjXgX",
"lXlXhXhXgXsXsXE.j y M i.|.V #XL Y.` A 1 o 6 [ #.#.@.@.#.] o *Xz v.C.;.|.9.d 9 q =.h.z.gXgXgXhXlXgXsX",
"lXlXhXhXhXsXsXsXy.l % r P I u.f u.S  .} 6 &.&.#.&.O.$.&.( O U.z 2.i.J F = + q ;.M..XgXlXlXhXhXgXsXiX",
"lXlXlXlXhXhXhXsXsX3.z a % w w = Z ; P.`...W Q Q Q W ] &./ O K 9 9 u 9 + 9 k ;..X:XaXsXlXlXlXhXgXsXiX",
"lXlXlXlXlXhXhXhXsX:XN ;.x j # + T < P.uX}.]...| | | %.| / ; E u & + % k c E..XdXiXiXsXgXlXbXlXgXiX7X",
"lXlXlXlXlXlXlXlXhXgX+X-.N ;.l w J i C D D D 4 4 4 3 4 1 , - I w & k z 5..X XaXaXiXiXiXsXgXlXbXgXiX7X",
"lXlXlXlXlXlXlXlXhXhXhXsX,XM 2.j & = + + + + + $ X   @ @ @ $ : & P z.oX+X:XiXiXfXaXaXiXiXsXgXgXsX6X6X",
"hXlXlXlXlXhXhXhXsXsXsXsXsXsXW.P k k z H H 3.6.6.t.t.t.u.I.I.E. X+X;XiXsXsXsXfXsXsXsXaXsXsXsXsXiX4X:X",
"hXhXhXhXlXhXhXsXsXsXsXsXsXsXsXsXsXsXiXsXiXsXsXgXsXgXpXiX6X6X6XdXfXgXsXsXsXsXsXsXsXsXsXsXsXsXfXdX6X4X",
"hXhXhXhXhXhXhXsXsXsXsXsXsXsXhXsXsXsXsXsXsXsXsXgXgXjXgXsXdXdX6XdXfXgXsXgXgXgXsXsXsXsXsXsXsXsXsXfX7X6X",
"hXhXhXhXhXhXsXgXsXsXsXsXsXsXsXsXsXhXsXsXsXsXsXgXlXjXjXgXsXdXdXdXfXsXsXgXgXgXgXsXsXsXsXsXsXgXsXaXdX7X",
"lXhXhXlXhXhXsXgXsXsXsXhXhXsXsXsXsXhXlXsXsXsXsXhXgXlXlXjXsXiXdXfXfXsXgXgXjXjXhXgXsXsXgXsXsXsXsXaXdX7X"
};
