/* XPM */
static char *_b699d38bb0a4a2abe06d8bf48d3510azj69g2wIOXXacIcZ[] = {
/* columns rows colors chars-per-pixel */
"50 50 228 2 ",
"   c #030304",
".  c #06090B",
"X  c #140D09",
"o  c #13100D",
"O  c #040B16",
"+  c #04141D",
"@  c #0B1319",
"#  c #141414",
"$  c #181719",
"%  c #14191C",
"&  c #1C1C1C",
"*  c #261D19",
"=  c #27231F",
"-  c #352416",
";  c #091B27",
":  c #191E23",
">  c #011636",
",  c #08202E",
"<  c #1A2429",
"1  c #0A2739",
"2  c #152A35",
"3  c #162A37",
"4  c #1D2C34",
"5  c #1B313B",
"6  c #242424",
"7  c #262727",
"8  c #252A2C",
"9  c #2D2C2C",
"0  c #332E2A",
"q  c #383127",
"w  c #232E33",
"e  c #2B2F30",
"r  c #2C3438",
"t  c #333333",
"y  c #383738",
"u  c #3B3C3C",
"i  c #493C2A",
"p  c #433D3B",
"a  c #654A1E",
"s  c #52483B",
"d  c #6D542C",
"f  c #7A5D38",
"g  c #031F40",
"h  c #082C44",
"j  c #0C3347",
"k  c #183848",
"l  c #022851",
"z  c #093856",
"x  c #133E54",
"c  c #183A51",
"v  c #293A42",
"b  c #353E43",
"n  c #17445B",
"m  c #27414E",
"M  c #3A4548",
"N  c #274756",
"B  c #394C55",
"V  c #39515C",
"C  c #094769",
"Z  c #174A66",
"A  c #17526F",
"S  c #1D526C",
"D  c #0B4D71",
"F  c #195877",
"G  c #234F63",
"H  c #24526A",
"J  c #2B586E",
"K  c #3A5562",
"L  c #225A76",
"P  c #275A75",
"I  c #235E7C",
"U  c #28617D",
"Y  c #396576",
"T  c #444444",
"R  c #484848",
"E  c #52514D",
"W  c #494E51",
"Q  c #4D5255",
"!  c #48535A",
"~  c #545353",
"^  c #535759",
"/  c #54595C",
"(  c #5C5D5D",
")  c #705449",
"_  c #635C59",
"`  c #706758",
"'  c #495D68",
"]  c #565F67",
"[  c #5A646A",
"{  c #586874",
"}  c #636669",
"|  c #6C6C6D",
" . c #726D67",
".. c #78706C",
"X. c #626E74",
"o. c #6C6F72",
"O. c #6A7175",
"+. c #6B767C",
"@. c #767879",
"#. c #9B6836",
"$. c #886940",
"%. c #8A774D",
"&. c #9B7849",
"*. c #877866",
"=. c #857E7A",
"-. c #8A815E",
";. c #B99256",
":. c #8F8868",
">. c #918675",
",. c #AA9271",
"<. c #CEA34C",
"1. c #DAB774",
"2. c #E5AE63",
"3. c #ECB569",
"4. c #DFCF7B",
"5. c #F4C47C",
"6. c #165B83",
"7. c #166892",
"8. c #226384",
"9. c #276888",
"0. c #346C8A",
"q. c #246C93",
"w. c #2B7296",
"e. c #1371A5",
"r. c #2A7BA5",
"t. c #416F87",
"y. c #617D8C",
"u. c #727C81",
"i. c #3383A8",
"p. c #2D88B9",
"a. c #3388B3",
"s. c #578299",
"d. c #798387",
"f. c #778793",
"g. c #558EAC",
"h. c #7897A5",
"j. c #7CA2B3",
"k. c #459ECC",
"l. c #66A8C9",
"z. c #878788",
"x. c #928C89",
"c. c #9D948E",
"v. c #838C92",
"b. c #878D96",
"n. c #85939C",
"m. c #8C9499",
"M. c #959393",
"N. c #999390",
"B. c #9A9A9A",
"V. c #A49E9C",
"C. c #8998A1",
"Z. c #929DA4",
"A. c #999FA7",
"S. c #97A4AB",
"D. c #8DA7B3",
"F. c #9AAAB3",
"G. c #A7A5A4",
"H. c #B3ADA6",
"J. c #A3ADB4",
"K. c #A7B2B7",
"L. c #A4B3BA",
"P. c #B5B5B4",
"I. c #B9B9BA",
"U. c #D5B790",
"Y. c #C2BEBC",
"T. c #F1CC8F",
"R. c #F8D587",
"E. c #FDEA92",
"W. c #C6C0BB",
"Q. c #EBCFA9",
"!. c #EED8AD",
"~. c #F5DAA8",
"^. c #FDEFAD",
"/. c #F9E8B8",
"(. c #A8BCC6",
"). c #B6BAC0",
"_. c #9AC9DB",
"`. c #A9C1CC",
"'. c #B4C4CC",
"]. c #BBC5C9",
"[. c #ABC7D5",
"{. c #B5CCD7",
"}. c #BCCCD4",
"|. c #BCD1DC",
" X c #8BC8E4",
".X c #A8D2E4",
"XX c #B4D4E4",
"oX c #BCD7E3",
"OX c #BBD9E7",
"+X c #B6D9E8",
"@X c #BDDCEA",
"#X c #C3C3C3",
"$X c #CBC6C4",
"%X c #CCCCCD",
"&X c #DECDC4",
"*X c #DCD2CC",
"=X c #C3CFD7",
"-X c #C2D3DD",
";X c #D3D3D3",
":X c #DAD7D6",
">X c #DBDBDB",
",X c #E4DDD9",
"<X c #DEE1DE",
"1X c #FFF3C2",
"2X c #C2D7E2",
"3X c #C4DAE5",
"4X c #CBDCE5",
"5X c #C4DEEB",
"6X c #C9DFEA",
"7X c #D4DFE5",
"8X c #C5E1ED",
"9X c #CDE1EB",
"0X c #CAE0ED",
"qX c #CDE2ED",
"wX c #D1E2EA",
"eX c #D1E2EB",
"rX c #D3E4EC",
"tX c #D1E4EF",
"yX c #CEE4F0",
"uX c #D4E5F0",
"iX c #E5E3E2",
"pX c #E6E7E9",
"aX c #EBEBEB",
"sX c #F1ECE9",
"dX c #F1F0EF",
"fX c #F4F4F4",
"gX c #F8F9F8",
"hX c #FCFCFC",
/* pixels */
"5X5XOX+X+XOXOXOX@X5X0XyXuXuXrXuXuXrXeXrXeXeXeXeXeXeXeXeXeXeXeXrXrXqX9X5X5X5X5X5X5X5X5X5X@X@X@XOX.X X",
"0X5X5X@X@X@X@X@X@XOX5X0XyXuXrXrXrXeXrXrX6X4X4X4X4X4X4X4XqXeXqXqXeXeXqX9X0X5X5X5X5XOX@X@X@X@X@X@X+X.X",
"qX0X6X5X5X@X@X@X@X+X@X5X0XuXrXeXeXqXqX6XqXeXeXeXeXeXeXeXqX6X6XqXqXqXqXqXqXqXqX6X@XXXXXOX@X5X5X5X5X@X",
"eX0X6X5X5X5X5X5X5X@X@X5X5XqXeXrXeX6X2X2X5XqXqXeXrXrXeXeX4X4X4X6XqXqXqXqXqXqXqX0X5X5X+XOX5X5X5X5X5X5X",
"eXqXqX6X5X5X5X5X5X5X5X@X3X6XrXrX4X3X3XXXF.v.n.n.n.m.v.Z.=XeXqX3X9XqXqXqXqXqXqX0XqXqX0X5X5X6X6X6X6X6X",
"eXeXqX6X6X6X5X5X5X5X5X@X@X5XqXrXqX|.oX[.[ 6 6 6 6 6 & u F.6X-X-XqX9X6X6X6XqXqXqXqXrXrXrXqXqXqXqXqX0X",
"eXeXeX9X6X6X5X5X5X5X5X5X@X5X3XrX4Xd.p E K c 2 2 k k k m ' E [ (.9X3X-X6X6X6X0X0XqXqXrXrXrXrXrXrXrXqX",
"eXrXrXqX6X6X6X5X5X5X5X5X@X5X0X4XS.B w r P q.Z 1 , 1 , ; @ o $ { '.5X5X0X0X0X3X5XqXeXeXrXrXrXrXrXrXrX",
"eXrXrXrXeXqXqX9X9X9X5X5XOX5XqXb.t N w.I n n x 2 # $ : & & & & & / {.3X|.2X6X5X5X6XqXqXeXrXrXrXrXrXrX",
"rXrXrXrXeXeXqXqXqX0X6X6X5X{.v.B G w.e.D ,   . Q =...=.V.M.@.z.z.O.X.{ W [ F.6X5X3X5X9XrXrXrXrXrXrXrX",
"rXrXrXeXqXqXqX9X0X0X3X3X5X`.y k q.8.1 2 M 0 0 z.pXaXgXhXfX;XiXhXB.6 6 R 6 Q '.6X3X3X5XqXrXrXrXrXrXrX",
"eXrXrX9X6X6X6X5X5X5X3X3X5X`.u 5 8.A O & d.#XP.G.>XhXhXhXhXhXhXhX@.# @.P.t   ^ {.9X3X3X9XrXrXrXrXrXrX",
"eXqX0X6X5X5X5X5X5X5X5X5X(.X.N S w.U + o z.hXhXsXgXgXiX*XfXhXhXaXG./ } G.z.r t L.qX3X3X6XqXrXrXrXrXrX",
"eXeXqX6X5X5X5X5X5XoX5X5Xu.8 G p.i.n O 6 z.iXhXhXhXhXpX;XfXhXgXpXhXpX9 6 $Xx.9 L.eX4X3X6X5X9XeXrXrXrX",
"eXeXeXqX5X5X5X5X5XoX5XOX@.< S r.Z . t M.I.:XhXgX>XhXhX>XiXhXpX%XhXgXp 6 $Xc.9 L.rX6X3X5X5X6XqXrXrXrX",
"eXeXeXqX9X5X5X6X5XoX5XoXO.< S S % * G.hXiX;XhXhX).A.b.o.[ { ] W z.A.! V h.y.w X.].eXqX6X3X3X6XqXqXqX",
"eXrXeXqX9X5X5X6X5XoX5XoXX.w I n 6 >.hXhX:X>XhXhXB.6   $ & X & & & & 5 n L w.P w | 4XrX4X6X5X6XqX6X6X",
"eXrXeXeX0X5X5X5X5XoX5XoXX.w 9.z 6 V.hX>X:XhXgXn.s a q ; s <.&.5 t f E h z w.8.4 } 4XrX4XqXqX0XqX9X6X",
"eXrXrXeXqX9X5X5X5X2X5XoXX.8 H h = x.pX>XpXgXM.. - 2.:.l :.^.4.z B 3.:.> 1 Y S 4 | 4XrX4XeXrXqXqXqXqX",
"eXrXrXeXeXqX6X5X5X2X5XoX+.8 k , 6 N.fXhXpXH.0   i 3.-.h *.E.1.c R ;...g h Y L 4 } 4XeX4XeXrXrXrXeXqX",
"eXrXrXrXeXqX9X5X5X5X5X3X[.f.r . 9 $XhXhX7XM.6 X $.2.;.%.;.5.U.,.,.,. .2 h 6.8.4 _ 4XeX4XqXrXrXrXeXeX",
"eXeXrXrXrXqX0X6X6X5X3XOX@X[.R   9 :XhXgXhXJ.: d R.5.1.R.R.~./.~.1X/.`   , P Z v z.4XeX7XeXeXrXrXeXeX",
"eXeXrXrXrXqX0X0X6X5XOXOXXX`.W   9 ].%X%XhX=X: a E.~.U.~.~.~.~.Q.^.R.d O h v r Z.qXqX6XeXeXeXrXrXeXeX",
"eXeXrXrXeXeXqXqXqX5X@XXX.X_.h.b 6 R @.P.aXgXB.- f !./.U.Q.!.Q.^.1.f ` v.H + 0 L.6X4X4XeXeXeXrXrXeXeX",
"eXeXeXeXeXeXeXqXqX0X5X@X.X.X_.h.e   ~ %XaXhXhXn.e ,./.~.T.T.~.E.f @ f.].V O ^ (.OX3X5X0XqXrXeXeXeXeX",
"eXeXeXeXeXeXeXqXqXeXqX6X5XOX.X[.D.w ~ ;XgX;XfXhXb.9 :./.T.3.R.&.% Z 0.B 8 [ `.XXXXOX5X0XqXqXrXeXeXeX",
"eXeXeXeXeXeXeXqXqXeXqXeXqX3X[.{.[.T q ..x.o.b.W.>.; $ :.5.3.#.* C r.n O Q (.+XOXOXOX@X5X8XyXrXeXeXeX",
"eXeXeXeXeXeXeXqXqXeXeXrXrX0XOX@XS.r & # # # # . < N > = &.$.% z i.I 4 ^ `.OXoXOX@X@XOX@X5XqXuXrXrXrX",
"qXqXeXeXeXeXeXqXqXeXeXeXqXqX5Xm.t 2 1 , + + + + 1 J 6.x q * z e.U 4 [ {.OXXXXX@X@X@X@X@X5X5X0XrXrXrX",
"qXqXqXqXeXeXeXqXqXeXeXeX4X4XF.u 4 k x Z S 9.9.G j D a.9.z ' j.t.2 Q I.5XoXXXXXXXOX@X5X5X5X5X5X0XqXeX",
"9XqX0XqXqXeXeXqXqXeX4X4X4X].R 4 k c n I F F F x x F 0.F 7. X#XE b '.6X4X3X@XXXXX+X@X5X5X5X5X5X5X6XqX",
"5X0X0X0XqXeXeXeXeXeX4X4X4X'.T 4 x S 8.8.j     j 8.8.F D 6.k.g.b R }.6X4X6X8XOXXXXX@X5X6X6X5X5X5X5X5X",
"5X5X0X0XqXqXeXeXeXeX4X4XqX'.T < n L F A V ) ) V Z I i.0.H r.p.N T '.3X3X9X0X5XOXXX@X5X0X6X5X5X5X@XOX",
"@X5X5X6X0XqXeXeXeXeX4X6XqX'.R ; k n j j S.hXgX .@ S a.L n p.a.m p L.3X4X4X9X6X3XOX@X8X8X5X5X5X@XXX.X",
"@X@X5X5X0X0XqXqXqXqXqX0X0X3XS.W ; > c d.:XhXhX*X*.M C C C e.e.1 o u '.4X-X5X0X6X5X5X5X5X5X5X5X5X+X.X",
"5X5X5X5X5X8X8X0X0X0X0X6X3X5XOXF.M ; { >XhX*XsXhX:X- < s.s.g.l.K y | / Z.3X5X5X6X6X5X5X5X5X5X6X6X5X5X",
"5X5X8X5X@X@X5X5X6X0X9X6X5X5X3X{.X.$ / %XpXG.iXhX%X* ~ ;X%X<XgX@.# 6 & t '.3X2X3X5X5X5X5X5X6X0X9X6X5X",
"0X0XqX0X5X@XOX@X5X6X6X5X3X3X|.[ 6 & * o.;XfXhX&X_ k s.S.n.[.`.r   @.P.| O.L.3X9X5X5X0X0X6X0XyXqX0X8X",
"yXyXrXuXyX0X@XOXOX5X0X3X6X-X^ t t y & # ` :XY.s ; L w.C z q.F 5 _ iXfX$Xy X.3X0X3X6X0X0X0XqXyXyXyXqX",
"qXrXrXrXrXrX0X8X5X9XqX3XrX'.< u V.#X_   & s y 2 A 8.F D D 0.S.:X>XfXfXP.t X.3XqX3X9XqXqXqXrXrXuXrXrX",
"qXqXeXeXrXuXuXrXqXqXrX6X}.@.R B.hXhX,XM.B O ; S q.A J U F n.fXhXdXfXaXz.9 X.3X9X2X6XqXqXqXrXrXrXrXuX",
"qXqXeXrXrXuXuXrXeX4XrX4X+.t G.gXgXpXhXgXj.D F 9.C j k j 1 ' ].gXfXhXhXB.t X.3X5XoX5X0X0XqXrXuXuXrXrX",
"qXqXeXrXuXuXuXuXrX4XrX4XO.t P.gXfX:XhXgXh.C A S h , # % % % M #XhXhXgXB.t X.5X5XoX5X5X9X0XqXrXuXuXrX",
"qXqXqXrXrXrXrXrXrX4XrXrXu.t @.aXfXaXhXgX+.  @ 5 5 W W ( | t & I.hXhXhXP.y X.6X6XoX5X5X5X5X0XqXrXuXuX",
"qXqXqXrXrXrXrXrXeX4XrXrX+.t M.fXfXpXhX%X/ & 6 6 R (.6X2X3XC.t B.:X%X:XG.u +.5X6X3X5X6X6X6X6X6XqXrXuX",
"qXqXqXeXrXrXeXeXeX4XeXeXO.t I.hXpXz.( ( d.J.S.b.K.6XrXqX6X2XZ./ R R ~ ^ f.[.5X6X0X0X0X0X0X0X9XqXqXrX",
"qXqXqXeXeXeXeXeXeX6XeXeXm.R @.#XI.^ 6 u J.eXeX4XeX6XrX4X-XeX-X[ 9 r 8 W (.@X@X3X0XqXqXqXqXqXqXqXqXqX",
"qXqXqXeXeXeXeXeXeXeXqXeX4X(.Q 0 T S.}.}.-XeXeXeXeXqXeXeX4XeX6X=X'.}.'.{.OX@X5X5X0X0XqXqXqXqXqXqXqXeX",
"qXqXqXeXeXeXeXeXeXeXqXqXeX-XZ.X.b.}.rXeX4X7X4X4X4XeXrXrXrXqX4XeXrXrXrXqX3XOX5X5X6XqXqXeXqXqXqXqXeXeX",
"eXeXeXqXqXeXeXqXqXqXqXeX4X4XqXeXeX4X4X4X6XeXeXeXeXeXeXrXeXrXeX4X4X4X4X4X6X5X5X5X0XqXeXeXeXqXqXqXeXeX"
};
