/* XPM */
static char *_7027ecb2ce44a80d0ddfe9cb13e7d795fGXexlw4PtFEFhc[] = {
/* columns rows colors chars-per-pixel */
"50 50 82 1 ",
"  c #0081D4",
". c #0583D5",
"X c #0084D4",
"o c #0486D5",
"O c #0985D5",
"+ c #0C86D5",
"@ c #008BD7",
"# c #0789D6",
"$ c #0D8BD7",
"% c #0A8DD6",
"& c #0E8CD7",
"* c #1188D6",
"= c #1489D6",
"- c #128CD7",
"; c #178CD7",
": c #1A8BD7",
"> c #168ED8",
", c #198ED8",
"< c #1E8ED8",
"1 c #1191D9",
"2 c #1590D8",
"3 c #208DD7",
"4 c #228FD8",
"5 c #248FD9",
"6 c #2193DA",
"7 c #2693DA",
"8 c #2195DA",
"9 c #2795DA",
"0 c #2B91D9",
"q c #2D92D9",
"w c #2C96DA",
"e c #2B9ADB",
"r c #2F9ADC",
"t c #3093D9",
"y c #3297DB",
"u c #3595DA",
"i c #3C97DC",
"p c #319BDC",
"a c #3998DB",
"s c #3898DC",
"d c #3C9ADC",
"f c #419ADD",
"g c #439CDD",
"h c #489DDD",
"j c #4E9FDE",
"k c #44A3DF",
"l c #48A0DE",
"z c #4CA2DF",
"x c #52A1DE",
"c c #57A3DF",
"v c #54A4DF",
"b c #59A3DF",
"n c #5AA4DF",
"m c #53A3E0",
"M c #51A5E0",
"N c #55A4E0",
"B c #5BA6E1",
"V c #5EA5E0",
"C c #57ACE3",
"Z c #58A8E1",
"A c #5DA8E1",
"S c #5DADE3",
"D c #61ABE2",
"F c #64AAE1",
"G c #67ADE3",
"H c #68AAE2",
"J c #6BACE2",
"K c #6DAEE3",
"L c #70AEE3",
"P c #73AFE4",
"I c #6AB5E5",
"U c #73B0E4",
"Y c #76B3E5",
"T c #7BB3E5",
"R c #7AB5E6",
"E c #7FC0E9",
"W c #84BAE7",
"Q c #93C3EA",
"! c #97C6EB",
"~ c #A4CEED",
"^ c #B9D4F0",
"/ c #BFDAF2",
/* pixels */
"         X9Vuo6P$                             OaW@",
"         sUf. +xW#                           *jJ> ",
"         O-O   +2                             $*  ",
"                                                  ",
"                                                  ",
"                                                  ",
"                                                  ",
"                                                  ",
"                     *q<o                         ",
"                    5NJA7                         ",
"                   kVGxNSp                        ",
"                  XEl+  CI;                       ",
"                  XX     40                       ",
"                                                  ",
"                                +                 ",
"                               ,F$                ",
"                             or/c^$               ",
"                            4TRO.%Qx+             ",
"                            <m&   1F=             ",
"                            .+     *.             ",
"                                                  ",
"                                                  ",
"                                                  ",
"             Oiz3                                 ",
"            >ZbBF*                               <",
"          o6MA0<zMdO                           OsB",
"          Owl=   MV*                           +xz",
"           X      <.                            $ ",
"                                                  ",
"                                                  ",
"                                                  ",
"                                                  ",
"                                                  ",
"                                                  ",
"                                  X#              ",
"                                 4~!L:            ",
"YhO                            +YLe8nP7           ",
"gK-                           Oun6X =jV4          ",
"+7o                            ==    *4+          ",
"                                                  ",
"                                                  ",
"           *gzf                                 *l",
"          =fFZFyO                             .4zH",
"         ,zn0otHko                           .7VN4",
"         7vy  OdDo                           +uN$ ",
"                                                  ",
"                                                  ",
"                                                  ",
"                                                  ",
"                                                  "
};
