/* XPM */
static char *_090425b185b4b68900b691d61a244adMgghsBLaF5YLKtQX[] = {
/* columns rows colors chars-per-pixel */
"50 50 59 1 ",
"  c #2A6ACC",
". c #2D6BCC",
"X c #2F6DCD",
"o c #306ECD",
"O c #3270CE",
"+ c #3671CE",
"@ c #3873CE",
"# c #3C75CF",
"$ c #3A75D0",
"% c #3D75D0",
"& c #3F78D1",
"* c #4078D1",
"= c #457BD1",
"- c #467CD2",
"; c #4A80D3",
": c #4D81D3",
"> c #4B80D4",
", c #4C80D4",
"< c #5083D5",
"1 c #5284D5",
"2 c #5687D6",
"3 c #5688D6",
"4 c #5889D6",
"5 c #5C8BD7",
"6 c #5F8ED8",
"7 c #6390D9",
"8 c #6491DA",
"9 c #6892DA",
"0 c #6994DA",
"q c #6C96DC",
"w c #6E98DB",
"e c #6F98DC",
"r c #729ADD",
"t c #769CDD",
"y c #799FDF",
"u c #7AA0DE",
"i c #7DA2DF",
"p c #7EA2E0",
"a c #7EA4E0",
"s c #83A5E1",
"d c #87A8E2",
"f c #88A9E2",
"g c #8EAEE3",
"h c #8FAEE5",
"j c #91AFE4",
"k c #92B1E5",
"l c #97B3E6",
"z c #9AB6E7",
"x c #9EB9E7",
"c c #9DB9E8",
"v c #A5BFE9",
"b c #A8C1EA",
"n c #B3C9ED",
"m c #BACDEE",
"M c #C5D6F1",
"N c #C7D8F2",
"B c #CDDBF3",
"V c #DBE5F6",
"C c #EDF3FB",
/* pixels */
"                                                  ",
"               &                                 X",
"              uxfX                              *g",
"            +e2X&p%                            -k$",
"            g8   4kO                          4s% ",
"            +     +                           oX  ",
"                                                  ",
"                                                  ",
"                                                  ",
"                                                  ",
"                                                  ",
"                       ;t*                        ",
"                     Xrbezo                       ",
"                    XV2  .C%                      ",
"                    @+    X0                      ",
"                                                  ",
"                                                  ",
"                                XrX               ",
"6                              %B6mo              ",
"yc                            il  @v4             ",
"X13                          oq+   $y             ",
"                                                  ",
"                                                  ",
"                                                  ",
"                 X                                ",
"               .9f:                               ",
"              +v6>g*                            X,",
"             -l-  Xka                           ud",
"             +o     >                           * ",
"                                                  ",
"                                                  ",
"                                                  ",
"                                                  ",
"                                                  ",
"                                                  ",
" =                                 o#             ",
"njN                               -Mbu            ",
",o*k6                           .ks++0h           ",
"   -a+                          14o  X5i          ",
"                                                  ",
"                                                  ",
"               X                                  ",
"              plhX                              *j",
"            %w7+1y*                            <d,",
"            fr   7ko                          1g* ",
"            o     X                           X.  ",
"                                                  ",
"                                                  ",
"                                                  ",
"                                                  "
};
