/* XPM */
static char *_7b0504e68b64015ccc236ee34fd9c44FclZg1DskoMZc3LT[] = {
/* columns rows colors chars-per-pixel */
"50 50 84 1 ",
"  c #0081D4",
". c #0683D5",
"X c #0084D4",
"o c #0484D5",
"O c #0B85D5",
"+ c #0F87D6",
"@ c #0088D6",
"# c #0488D6",
"$ c #0888D5",
"% c #0D88D6",
"& c #0A8DD7",
"* c #1087D6",
"= c #138AD7",
"- c #1489D6",
"; c #108FD7",
": c #188BD7",
"> c #198CD7",
", c #1C8CD7",
"< c #168CD8",
"1 c #1A8ED9",
"2 c #1D8ED8",
"3 c #1B90D8",
"4 c #1E90D8",
"5 c #228ED8",
"6 c #258FD9",
"7 c #2091D9",
"8 c #2590D9",
"9 c #2991DA",
"0 c #2E93DA",
"q c #2F94DA",
"w c #2998DB",
"e c #2D98DB",
"r c #2F99DC",
"t c #3397DB",
"y c #3595DA",
"u c #3A96DB",
"i c #3A99DB",
"p c #3F99DB",
"a c #3A99DC",
"s c #3D9BDD",
"d c #399DDD",
"f c #469BDC",
"g c #439CDD",
"h c #449FDE",
"j c #4A9DDC",
"k c #41A0DE",
"l c #45A0DE",
"z c #51A0DE",
"x c #54A2DE",
"c c #57A4DF",
"v c #58A2DF",
"b c #58A5DF",
"n c #5CA4DF",
"m c #57A7E1",
"M c #5BA6E0",
"N c #5DA6E0",
"B c #5BA8E1",
"V c #5EA8E0",
"C c #5BADE3",
"Z c #60A4E0",
"A c #63A8E1",
"S c #65A9E2",
"D c #63AFE3",
"F c #67ACE2",
"G c #6AADE3",
"H c #6CADE3",
"J c #6EAFE4",
"K c #6FB5E5",
"L c #72B0E4",
"P c #77B1E5",
"I c #71B6E5",
"U c #78B2E5",
"Y c #7BB7E6",
"T c #7FB5E5",
"R c #81B6E6",
"E c #82B8E6",
"W c #85B9E6",
"Q c #82BDE8",
"! c #90C4EA",
"~ c #A3CBEC",
"^ c #A3CCED",
"/ c #A9CFEF",
"( c #A0D0EF",
") c #B3D7F1",
/* pixels */
"                                                  ",
"                                                  ",
"                                                  ",
"                                                  ",
"                   O5q%                           ",
"                  +iVAl                           ",
"                 rhLYVYwO                         ",
"                X)Q5   (e+                        ",
"                X;%    7x6                        ",
"                XX     O0-                        ",
"                                                  ",
"                               -                  ",
"                             <dNe%                ",
"                           O<C/V^k+.              ",
"                           aTBO.&Ic,              ",
"                           tsX   @Vq              ",
"                           -:    X8=              ",
"                                                  ",
"                                                  ",
"                                                  ",
"                                                  ",
"           uZPp                                   ",
"         XkAvmH%                                 2",
"         #DLzgR1O                               o0",
"        =maO   AA                               bM",
"        XX     .9                               1o",
"                                                  ",
"                                                  ",
"                                                  ",
"                                                  ",
"                                                  ",
"                                                  ",
"                                                  ",
"                                 X#X              ",
"                                2KQF5             ",
"                               Oq!~WyO            ",
"                             O2FM3X9SU2.          ",
"X                            :pj$  oyxNO          ",
"                                                  ",
"                                                  ",
"                                                  ",
"         O%=*                                    +",
"       o-ZJLU2O                               .*aG",
"       %hnqqfM7                               *uTj",
"       TH-   NEX                             +zR<.",
"       4>.   -4                               =2o ",
"                                                  ",
"                                                  ",
"                                                  ",
"                                                  "
};
